<?xml version="1.0" encoding="UTF-8" standalone="no"?>
<!-- Created with Inkscape (http://www.inkscape.org/) -->

<svg
   width="1000"
   height="800"
   viewBox="0 0 1000 800"
   version="1.1"
   id="svg1911"
   inkscape:version="1.1 (c4e8f9e, 2021-05-24)"
   sodipodi:docname="drawing_10.svg"
   xmlns:inkscape="http://www.inkscape.org/namespaces/inkscape"
   xmlns:sodipodi="http://sodipodi.sourceforge.net/DTD/sodipodi-0.dtd"
   xmlns="http://www.w3.org/2000/svg"
   xmlns:svg="http://www.w3.org/2000/svg">
  <sodipodi:namedview
     id="namedview1913"
     pagecolor="#ffffff"
     bordercolor="#666666"
     borderopacity="1.0"
     inkscape:pageshadow="2"
     inkscape:pageopacity="0.0"
     inkscape:pagecheckerboard="0"
     inkscape:document-units="px"
     showgrid="false"
     units="px"
     inkscape:zoom="0.36"
     inkscape:cx="84"
     inkscape:cy="4.8e+02"
     inkscape:window-width="1713"
     inkscape:window-height="992"
     inkscape:window-x="1942"
     inkscape:window-y="200"
     inkscape:window-maximized="0"
     inkscape:current-layer="svg1911" />
  <defs
     id="defs1908" />
  <path
     d="m 680,120 v 0 l 20,50 10,50 v 10 l -20,20 v 40 l -10,10 v 10 h -10 l -10,-20 -20,-10 v -20 l -10,-20 -10,-10 -10,-20 v -10 l -10,-10 -10,10 v 10 l 10,30 v 10 l 20,20 20,30 10,30 10,20 v 20 l 10,10 20,50 30,40 10,20 10,10 10,10 v 10 0 h -10 v 10 20 l 10,10 v 10 l 20,10 10,10 10,10 10,10 v 10 H 580 530 470 420 370 330 300 270 250 230 V 560 530 460 440 400 360 260 240 230 l -10,-20 v -30 0 l 10,-20 v -10 l -10,-30 10,-10 10,-10 v 0 h 10 10 10 20 l 30,10 h 10 20 l 20,10 v 10 h 10 20 l 20,10 h 20 v 0 l 20,-10 20,-10 20,-10 10,-10 h 10 10 10 l 20,10 v 10 l 20,10 10,-10 10,10 h 10 l 10,-10 10,10 v 0 h 20 v 0 l 10,-10 z"
     style="fill:none;fill-rule:evenodd;stroke:#000000;stroke-width:21.7341;stroke-linecap:round;stroke-linejoin:round;stroke-miterlimit:4;stroke-dasharray:none;stroke-opacity:1"
     id="path657"
     inkscape:connector-curvature="0" />
</svg>
