<?xml version="1.0" encoding="UTF-8" standalone="no"?>
<!-- Created with Inkscape (http://www.inkscape.org/) -->

<svg
   width="1000"
   height="800"
   viewBox="0 0 1000 800"
   version="1.1"
   id="svg1911"
   inkscape:version="1.1 (c4e8f9e, 2021-05-24)"
   sodipodi:docname="drawing_9.svg"
   xmlns:inkscape="http://www.inkscape.org/namespaces/inkscape"
   xmlns:sodipodi="http://sodipodi.sourceforge.net/DTD/sodipodi-0.dtd"
   xmlns="http://www.w3.org/2000/svg"
   xmlns:svg="http://www.w3.org/2000/svg">
  <sodipodi:namedview
     id="namedview1913"
     pagecolor="#ffffff"
     bordercolor="#666666"
     borderopacity="1.0"
     inkscape:pageshadow="2"
     inkscape:pageopacity="0.0"
     inkscape:pagecheckerboard="0"
     inkscape:document-units="px"
     showgrid="false"
     units="px"
     inkscape:zoom="0.35779921"
     inkscape:cx="370.31943"
     inkscape:cy="480.71654"
     inkscape:window-width="1440"
     inkscape:window-height="790"
     inkscape:window-x="2020"
     inkscape:window-y="223"
     inkscape:window-maximized="0"
     inkscape:current-layer="svg1911" />
  <defs
     id="defs1908" />
  <path
     d="m 716.61439,407.51138 -0.37062,-4.99345 -6.22621,-26.7322 -0.63422,-6.26487 -3.97871,0.48459 -2.79749,1.24068 -3.91529,12.5436 -2.21579,3.82016 -5.25805,-4.83986 -2.47839,-2.88172 -2.28913,-3.03829 -0.007,-4.12438 -0.0892,-5.66236 1.29717,-3.07298 6.47098,-3.87565 4.94391,-1.4141 9.32199,-8.36273 1.57761,-3.70818 0.11594,-8.64714 -0.5589,-1.38834 -1.10592,-1.07618 -24.5491,-2.16426 -5.55237,0.0396 -9.09207,0.67683 -5.4384,-0.58467 -5.32643,-1.20501 -0.94537,-1.07816 -0.78386,-7.90689 -0.52322,-5.2848 -1.28429,-3.5744 -4.13529,-0.59656 -4.86166,0.65403 -3.69133,-2.9382 -3.36234,-2.94316 -12.43855,-3.35837 -2.32282,1.89076 -5.50975,5.81001 -1.23474,3.1245 0.82745,1.70743 4.90725,2.61416 12.15316,10.32384 1.24465,1.23177 -0.46873,1.70743 -3.78547,1.1069 -4.98157,1.42501 -3.9797,3.27215 -5.43741,6.67314 3.36332,3.52386 10.34367,4.70509 1.92445,2.29408 -0.28837,2.92037 -5.01526,8.3112 0.39341,2.75289 3.48818,4.86959 3.23351,15.22019 3.9916,19.07701 1.47059,5.69704 -1.70941,3.44062 0.67881,1.95815 -3.1909,0.76105 -3.47531,-0.59457 -1.46761,-7.54123 -1.97202,-0.90177 -2.50911,3.78151 -1.69554,3.77458 -1.7104,0.60646 -1.13961,-1.0524 -2.78757,-6.33225 -1.5132,-1.80949 -4.09466,5.74758 -5.00337,3.17801 -9.85313,4.24132 -5.67227,2.2703 -2.61515,2.41299 -0.49647,1.20402 1.05934,6.15487 1.80751,4.34437 -3.32963,5.24913 -3.03136,3.52089 -0.12089,2.71623 -5.44534,4.39194 -5.87938,4.934 -4.63869,1.94823 -4.28592,0.60548 -7.40744,2.16228 -5.86749,3.81818 -4.55842,6.10135 -5.47011,5.79812 -8.7393,11.12058 -6.06964,5.77335 -6.68603,2.88073 -6.69295,8.64515 -6.71774,4.86959 -7.22411,3.837 -4.48411,2.50516 -4.24627,3.23846 -1.91058,5.28183 -0.72439,4.83292 -3.38017,4.24925 -6.45315,3.08387 -4.24231,0.59458 -5.02417,-1.01276 -2.55966,2.78163 -3.64476,9.16442 -2.75388,2.37137 -5.01229,-2.61218 -6.09541,1.47158 -3.52089,2.92037 -3.01847,5.82785 -1.6341,4.9449 -0.0495,5.22732 1.64698,15.78901 0.17738,8.23985 -2.07012,5.05688 2.25543,3.31278 3.12847,4.31862 -0.1427,5.18471 -1.97895,6.19153 -6.64044,16.38557 -3.38711,8.46182 -1.29321,6.44324 0.46575,6.57701 2.084,17.83633 -0.80169,2.4239 -6.37783,0.01 -4.29582,-0.13378 -1.84914,1.42896 -3.31477,9.68864 -3.21468,5.98046 0.24576,1.27834 4.89733,3.54269 -7.98814,3.28405 -3.03532,0.14864 -7.64131,2.85695 -2.92829,4.1224 -1.00187,6.95259 -1.56274,2.5547 -3.64476,2.84208 -5.22138,2.56164 -0.98304,0.56881 -0.65701,0.42612 -2.30497,1.56274 -1.43194,0.003 -1.72428,-0.56188 -14.07563,-14.56814 -0.90772,-3.97078 -2.74794,-5.24715 -3.36729,-14.06472 -6.84556,-18.07615 -9.3418,-19.54871 -9.72729,-15.30343 -5.49885,-17.50931 -5.03409,-18.28523 -7.32915,-16.75123 -8.15067,-14.58597 -4.20861,-7.58582 -5.92992,-14.84362 -3.6071,-11.97083 -7.61357,-34.05342 -4.65455,-28.25135 -1.56274,-16.51636 -0.50837,-2.53588 2.31687,-5.98045 5.41165,-8.84434 0.0694,-3.29891 -4.01042,-2.99172 -3.64971,-4.64959 -1.12673,-6.76927 -1.07519,-9.8016 0.65502,-6.65531 -8.31021,0.32207 -1.89868,2.27326 -2.3357,4.5396 0.0892,1.9631 2.7519,2.71028 0.7343,1.95814 -0.7234,4.6714 -2.98676,4.6704 -4.99643,3.91827 -8.06643,3.92024 -4.99445,1.21195 -6.13802,2.71226 -3.73791,0.15757 -8.553,-2.97784 -5.68317,-4.03818 -10.10087,-10.65284 -13.81699,-13.54844 -5.11733,-7.55707 2.64884,-0.45981 10.5488,1.33978 6.11126,-0.92358 4.39888,-1.52509 4.5832,-3.04423 5.17183,-6.54333 -0.65998,-2.58344 -1.55482,0.76404 -5.83181,1.22978 -8.40831,-0.28441 -6.02605,-1.20302 -6.28171,-1.426 -4.95976,-2.35452 -2.02156,-0.7571 -9.22091,-7.14682 -6.63746,-8.39444 -0.55593,-2.14147 3.67647,-0.38945 2.94018,-4.68626 8.60155,-0.17936 -0.1526,-7.91779 2.57055,0.5698 8.2894,0.10108 8.29436,0.2299 2.27425,1.62023 7.30042,1.08015 1.98688,-3.60116 7.74338,-2.34363 1.82238,0.67386 1.43491,3.6507 5.45822,-0.89979 1.49437,-2.70335 3.1473,-0.72142 -2.39416,-5.05291 2.3129,-1.62716 -6.50368,-14.60976 -2.1385,-5.57119 -1.11384,-4.86265 -5.33336,1.09303 -3.2781,-1.09303 -4.09466,-4.53663 1.52707,-8.12291 1.13466,-7.64131 -4.21259,-0.16054 -5.00931,-0.94141 -5.373,-1.81247 -1.15546,-4.23042 0.78683,-2.99072 1.84319,-6.0637 9.72926,-9.98692 1.42402,-5.00733 5.3175,-5.20255 4.01141,-0.93052 2.05229,1.48843 1.57761,5.81397 3.59025,1.05736 8.88002,-3.52683 7.28852,0.12287 7.05367,-2.90946 0.7571,-4.27997 5.59101,-6.87926 2.75884,-5.44038 1.75499,-4.11646 11.85389,-5.62668 4.7368,-6.2282 5.05589,-13.88041 3.49611,-5.35714 6.05379,-1.52509 3.5635,-3.22756 -2.59136,-4.37411 15.0101,-17.3676 2.35156,-11.3485 -1.85905,-4.40285 -0.31612,-4.27798 5.12823,-2.89956 6.37685,-2.29606 5.00634,-2.34759 1.99183,-2.99171 -0.11495,-2.48434 -6.64143,-4.43753 -6.96746,0.58367 -1.86895,-2.92135 0.38846,-5.07175 -7.7741,0.0396 0.0396,-6.2936 -6.02704,-3.52783 -0.87898,-2.94315 2.13156,-1.57167 1.15051,-5.70596 -3.85584,-2.75983 1.37447,-4.93598 3.81718,-1.18619 0.0198,-4.15807 -5.94081,0.19819 -0.99691,-2.37831 2.00471,-1.78571 -0.4598,-3.77359 h -3.34252 l -0.89186,-1.989851 3.77655,-7.374741 8.86812,-3.196844 16.9623,3.929166 5.64155,1.663825 9.21595,1.792651 5.52957,-3.190899 2.5983,1.397257 2.68551,-3.593229 4.34735,-1.598422 6.16775,1.238703 1.23474,2.157325 2.32777,-1.398248 0.70854,-5.799111 1.54491,-5.217416 4.08475,-2.817306 6.82277,-4.505905 2.05427,-1.020691 4.98751,-1.8531 v 6.274773 l 4.38501,12.496034 2.192,6.221261 8.03968,1.330862 4.386,4.873556 2.19201,3.09477 -3.28901,2.64983 -1.82733,2.20688 0.73133,7.04475 0.36567,6.58395 2.92333,2.62803 7.127,1.13862 0.90574,0.92556 0.439,2.16129 6.75341,1.17726 -1.02862,4.9013 3.64079,8.21012 -5.73866,4.28988 -3.73196,3.30981 -3.65467,0.58269 -3.34945,-3.11361 -0.32702,-4.28789 -7.7959,2.34065 1.55383,8.17148 5.75353,6.98133 -1.03457,5.22237 2.70731,4.24726 -2.1385,2.50713 0.98502,5.00337 1.9621,0.76899 4.73383,-3.65467 3.80629,2.88568 7.66509,9.78774 3.60908,-1.34077 10.70339,6.69692 -1.14754,4.20069 7.50159,2.86091 1.52905,-0.76305 8.53714,6.85251 -10.6241,10.43483 -2.80145,1.32393 0.0793,4.15906 -2.18705,3.02145 0.40035,4.52473 -3.06802,4.51582 -2.16724,4.88445 0.38846,2.81334 6.25793,4.30871 4.62779,-0.93646 6.60675,5.42353 6.98331,1.68167 3.03135,5.96856 12.33253,7.62744 2.29705,-1.85905 10.2079,6.68503 5.34228,-0.74223 1.80553,4.44843 8.28345,1.85211 3.02046,2.21976 1.49139,-0.74025 0.86313,-2.40507 h 4.99842 l 4.79031,2.96001 5.77731,-3.88656 4.90427,3.33162 6.38576,0.74025 1.40221,2.5874 -0.99195,4.98355 6.58395,1.65986 2.83713,3.13045 6.13802,2.94415 5.79812,-3.12748 3.11756,0.73629 -0.34287,3.67845 3.10369,2.75586 3.76665,-2.57253 7.15475,1.6549 8.4103,4.03817 6.02009,-3.30386 2.65479,4.03718 3.96385,1.28428 3.54863,-1.46761 2.69443,0.91664 6.8089,-1.46663 3.34153,0.54999 3.08387,-7.71365 -4.25816,-9.21001 0.69763,-9.79665 3.16216,-8.53119 -0.36665,-0.25369 3.42179,-1.44879 4.67338,-1.14059 2.30002,0.77889 1.37645,2.0513 -0.51827,9.65395 2.1048,7.39753 -0.9097,1.26546 2.34263,5.48993 6.31639,2.00076 5.55137,0.90573 8.6293,2.37534 0.83935,0.2309 5.40074,-0.81953 5.28282,-3.48621 2.98874,0.60846 3.32171,1.3923 12.29982,0.70457 10.29115,-0.69466 6.1945,-0.66692 2.1494,-6.45711 -0.16252,-3.1473 -2.55668,-2.66271 -3.11757,-0.768 -3.24144,-3.29197 -0.4162,-2.68353 0.69962,-1.74409 1.87985,-1.1188 7.79194,-0.36666 7.08835,-2.41993 3.94502,-3.0373 11.1513,-12.4663 5.38885,-4.17988 8.23986,-2.92631 10.97292,-8.22994 5.41759,-3.40098 3.5308,-0.98601 2.84307,1.90661 9.68269,3.62197 3.74386,-0.50539 13.67429,-9.55486 4.51878,4.46626 7.10421,8.1249 0.45287,4.31168 -3.51494,5.12823 -1.36852,3.03631 1.00384,0.63025 2.98082,0.61737 6.52747,0.91169 7.25384,2.02057 6.19649,0.91267 -0.17739,5.71686 -1.11384,2.70137 -5.91604,6.52648 -0.71151,3.16315 1.82238,8.02679 -2.9283,0.64908 -8.47074,-2.46452 -5.5375,-0.90871 -3.10072,1.43788 -7.1379,5.70894 -14.364,9.82043 -1.96111,3.9252 0.56187,8.43012 -1.34275,4.21654 -9.32,12.49108 -0.44891,2.32777 1.91454,4.47816 -0.005,3.55755 -11.39904,24.54713 -1.69058,1.39032 -3.06802,-0.13378 -3.8707,-1.20204 -8.05751,-3.47728 -1.31204,3.07693 1.45374,17.27049 -1.90562,3.82314 -3.97871,1.54788 -2.26237,1.99282 1.51717,10.01764 -0.15459,7.27565 -2.71425,3.94898 -2.48038,1.37744 -2.52596,-1.49635 -5.9101,-1.62617 z"
     style="fill:none;fill-rule:evenodd;stroke:#000000;stroke-width:9.90962;stroke-linecap:round;stroke-linejoin:round;stroke-miterlimit:4;stroke-dasharray:none;stroke-opacity:1"
     id="path207"
     inkscape:connector-curvature="0" />
</svg>
