<?xml version="1.0" encoding="UTF-8" standalone="no"?>
<!-- Created with Inkscape (http://www.inkscape.org/) -->

<svg
   width="1000"
   height="800"
   viewBox="0 0 1000 800"
   version="1.1"
   id="svg1911"
   inkscape:version="1.1 (c4e8f9e, 2021-05-24)"
   sodipodi:docname="drawing_7.svg"
   xmlns:inkscape="http://www.inkscape.org/namespaces/inkscape"
   xmlns:sodipodi="http://sodipodi.sourceforge.net/DTD/sodipodi-0.dtd"
   xmlns="http://www.w3.org/2000/svg"
   xmlns:svg="http://www.w3.org/2000/svg">
  <sodipodi:namedview
     id="namedview1913"
     pagecolor="#ffffff"
     bordercolor="#666666"
     borderopacity="1.0"
     inkscape:pageshadow="2"
     inkscape:pageopacity="0.0"
     inkscape:pagecheckerboard="0"
     inkscape:document-units="px"
     showgrid="false"
     units="px"
     inkscape:zoom="0.35779921"
     inkscape:cx="368.922"
     inkscape:cy="480.71654"
     inkscape:window-width="1459"
     inkscape:window-height="878"
     inkscape:window-x="1843"
     inkscape:window-y="436"
     inkscape:window-maximized="0"
     inkscape:current-layer="svg1911" />
  <defs
     id="defs1908" />
  <path
     d="m 783.56467,596.4124 1.90821,4.34114 0.72443,6.36552 -1.07666,11.74882 2.14423,1.34718 1.13839,8.20836 -1.38167,19.55594 -3.84366,8.00321 -2.13879,17.66589 -5.31792,12.16096 -5.42141,-1.05487 -1.03853,-4.75509 -7.46033,-1.85192 -4.11599,-3.70566 5.16358,-5.03651 -1.2691,-1.85555 -7.93785,-2.39115 4.66975,-8.11033 -2.00443,-1.73209 -5.29614,1.73209 -0.96772,-3.59673 2.08795,-0.53378 3.18276,-3.86906 -1.69215,-3.74016 -4.67881,-2.00625 0.26326,-4.01433 4.49545,-2.94672 -5.17449,-5.36695 4.40103,-6.98829 10.90456,-7.54567 4.90759,-0.53923 0.72987,-3.1047 5.29797,-1.08028 3.56767,2.56545 1.72663,-3.51139 -0.39942,-8.5243 1.31994,-5.56302 z m -456.13028,-17.58962 6.81217,-3.04297 7.4676,-9.15067 9.98767,-58.20847 7.21706,-2.33487 -3.82004,-7.40951 -4.10148,6.6288 2.27497,-29.38383 4.05606,-21.38244 2.09341,3.97256 9.01813,7.92694 3.48235,9.87692 3.46781,5.90981 -5.10368,-17.36993 -11.46921,-15.08955 -4.4083,-6.07139 0.44119,-6.48536 6.52167,-12.47142 -3.67116,-9.86239 -3.64211,-7.20071 -5.92616,-5.69013 -12.45689,-2.63264 -9.36855,-15.12222 -7.56928,-8.56605 5.05466,-11.35483 -4.23764,-4.84222 -6.23843,-3.5005 -9.29775,-3.81277 -3.34616,-4.64615 4.48637,-10.13112 -5.98789,-4.66428 -9.25235,4.81135 -8.90374,-6.7123 -14.99331,-6.77768 -11.25315,-4.89306 -5.91345,0.38127 -3.91082,-6.7813 -16.55836,4.52268 -1.07303,-6.78675 -4.82044,-3.40063 -6.68146,-1.13476 -1.00765,-2.83599 15.66509,-2.27313 -1.54146,-6.25842 -9.58097,-2.84868 8.04859,-2.85233 1.56505,-5.60297 -4.99836,0.46117 -4.77869,-0.57193 -7.58562,2.28585 0.71354,-12.0266 5.51037,0.32499 5.55396,-4.01067 9.57551,-2.42566 10.21282,-4.81682 3.90901,5.18176 3.27173,-4.6062 8.62777,1.72845 2.02986,-7.18618 4.95843,-1.61953 13.9003,-2.15694 7.14807,10.11477 5.01108,7.17529 6.23298,2.29674 11.86502,-7.47305 5.77546,4.60075 5.01653,-3.49868 8.30459,-3.40426 0.5229,6.32922 10.76658,-1.78293 5.44864,-2.81964 -4.80955,-5.1872 -0.52108,-6.93019 1.01129,-9.56463 -0.66088,-11.91585 -2.39479,0.58281 -10.21099,-19.05482 -2.01169,-11.42201 16.86157,3.535 11.0498,-2.94493 -1.52512,11.16782 4.50998,11.71614 6.22391,-4.09239 22.56985,2.92314 9.12163,4.08874 1.44341,-0.39217 9.56281,-2.59814 12.04839,-7.53478 -9.72259,-3.46237 0.99676,-5.71917 3.00484,-4.91667 13.71512,-9.06535 13.75325,-5.10912 16.40585,-6.10226 5.73007,-6.64877 5.48859,-7.51118 -0.95683,-22.14136 2.44926,-15.59247 9.48837,-7.22249 8.35907,-4.62981 16.66912,-2.66168 3.21545,-2.77243 3.78373,12.90898 5.65018,9.66993 4.83497,3.6621 2.55638,-2.03893 7.46215,-5.97155 2.7906,4.88763 3.67479,13.15954 3.54045,3.79644 9.42302,-0.34496 2.89408,8.60962 4.70968,-0.34496 10.48878,1.37622 6.82125,4.80592 -2.90135,6.8503 1.64313,4.96569 -1.29997,5.61205 5.1872,3.44421 7.39316,-2.12063 8.11214,-0.98406 3.50959,-8.86562 4.46821,-2.05164 -2.17511,10.57774 2.64535,5.08734 -0.69357,6.43089 9.61547,1.35264 6.20757,5.39962 6.745,5.72644 2.31853,6.38549 12.6312,-4.89126 1.44159,3.21182 11.67801,1.77205 10.33627,0.32316 2.63082,1.75025 7.7817,8.91647 6.13495,7.73631 7.16258,-1.53601 0.82247,4.03066 12.54405,-1.72665 1.30906,-1.34354 4.26305,0.19244 1.72301,5.17994 8.29008,2.48921 8.70221,-0.38309 11.02076,5.35785 -17.35359,22.27028 -0.99133,5.86987 -0.9659,9.81882 -5.84808,10.16015 -1.3708,8.06312 1.65766,2.05891 -3.92898,19.0167 2.45108,6.31106 -7.001,8.3282 -8.59329,-0.18338 0.0909,-2.58905 -8.12668,-0.18519 -4.0016,8.12849 2.78878,0.73894 2.11337,2.3948 -3.1519,0.92232 -9.60639,13.23035 -0.21425,2.01533 -10.47425,6.40547 0.6972,8.39357 -13.06694,11.09338 -1.60682,7.79259 1.45612,3.61671 -0.22695,8.48252 -4.34658,5.94068 6.72865,2.92132 15.51621,-17.59145 11.21502,-3.90174 5.69557,21.24264 1.83195,11.12243 -11.35119,7.87792 9.69717,8.97819 0.45208,7.60559 7.82711,4.97114 -3.63668,7.05001 -9.83515,9.11437 -3.32801,-2.8614 -7.93603,4.78776 6.38731,9.22511 11.2114,4.90397 2.46195,8.49705 -3.18638,0.25782 -5.7319,9.49927 3.51139,11.25679 13.72421,9.9441 15.43995,-1.78294 1.12023,7.12264 -2.66713,11.8505 -6.29472,5.79178 -4.0234,5.41779 -15.144,12.25718 -16.17345,16.493 -7.75447,2.16058 -5.80089,1.08391 -14.52305,3.95622 -7.35867,-0.68992 -8.57513,-3.8945 -15.47082,-12.45508 -5.74096,-2.13334 -6.43815,0.73351 -4.20858,1.80108 -9.28866,-1.40527 -13.6897,-7.84708 -10.94451,1.10571 -13.29208,8.63322 -6.50351,6.45087 -10.1075,13.91665 -2.66895,9.58642 1.77931,12.72198 1.66672,9.3631 -6.08956,-2.24409 -13.63522,3.36614 -0.71717,3.36251 -8.8275,-0.37402 -7.76536,-4.85857 -7.17347,4.11236 -4.75327,-0.37402 -0.64818,-3.73834 -6.09863,-2.24591 -3.7456,0.74985 -6.81036,1.87008 -3.38611,-1.87008 -0.63546,-7.12083 -1.66855,-5.25619 -22.7732,-7.52388 h -6.47084 l 0.31592,7.89971 -9.86965,-0.37583 -6.1277,1.50332 -0.67721,-3.00664 -13.95478,0.75347 -1.53783,-2.83235 -0.50473,-0.92959 -7.83437,-3.76558 -2.38207,1.88279 -4.7696,-0.75347 -1.01857,1.88279 -9.21967,-9.80067 -2.72159,1.50877 -19.80831,-8.31367 -2.03348,2.64715 -2.7325,-0.7553 -1.71938,-2.64897 3.72019,-6.06232 -1.04035,-3.03569 -8.53155,0.75892 -8.57875,-6.07866 z"
     style="fill:none;fill-rule:evenodd;stroke:#000000;stroke-width:18.1562;stroke-linecap:round;stroke-linejoin:round;stroke-miterlimit:4;stroke-dasharray:none;stroke-opacity:1"
     id="path1077"
     inkscape:connector-curvature="0" />
</svg>
