<?xml version="1.0" encoding="UTF-8" standalone="no"?>
<!-- Created with Inkscape (http://www.inkscape.org/) -->

<svg
   width="1000"
   height="800"
   viewBox="0 0 1000 800"
   version="1.1"
   id="svg1911"
   inkscape:version="1.1 (c4e8f9e, 2021-05-24)"
   sodipodi:docname="drawing_6.svg"
   xmlns:inkscape="http://www.inkscape.org/namespaces/inkscape"
   xmlns:sodipodi="http://sodipodi.sourceforge.net/DTD/sodipodi-0.dtd"
   xmlns="http://www.w3.org/2000/svg"
   xmlns:svg="http://www.w3.org/2000/svg">
  <sodipodi:namedview
     id="namedview1913"
     pagecolor="#ffffff"
     bordercolor="#666666"
     borderopacity="1.0"
     inkscape:pageshadow="2"
     inkscape:pageopacity="0.0"
     inkscape:pagecheckerboard="0"
     inkscape:document-units="px"
     showgrid="false"
     units="px"
     inkscape:zoom="0.35779921"
     inkscape:cx="368.922"
     inkscape:cy="480.71654"
     inkscape:window-width="1459"
     inkscape:window-height="878"
     inkscape:window-x="1843"
     inkscape:window-y="436"
     inkscape:window-maximized="0"
     inkscape:current-layer="svg1911" />
  <defs
     id="defs1908" />
  <path
     d="m 347.50507,694.3388 -3.11323,-8.11989 4.98807,-24.47422 -2.10315,-2.65212 1.74111,-10.37477 7.4256,-13.07597 1.22915,-12.63665 1.25912,-7.55443 22.0416,-28.66384 -13.99795,-6.89316 -11.0554,0.49304 -10.52961,-3.2059 -2.18847,-6.66651 -5.41469,-0.24534 -1.66271,1.72914 -15.93275,2.22216 -1.04236,-5.1874 -9.09983,1.97683 -7.79228,-9.95651 -9.8839,-11.47537 -1.72495,-12.73947 5.74677,-5.20376 1.00546,-10.42853 -10.75561,-3.48395 -9.49416,-11.34684 -1.44132,-10.98232 9.74785,-13.77696 -0.86939,-17.20483 -6.51472,-13.45683 -7.95829,-6.5637 3.81656,-10.29533 -3.30001,-8.08251 -4.19939,-1.34826 1.86792,-3.6008 5.44008,-4.95605 5.44468,-4.96308 -4.4669,-4.52144 4.64215,-10.29999 2.19079,-5.56594 -3.51448,-10.99166 -1.90021,-9.98457 -8.67552,-6.86744 1.61658,-6.88381 7.87298,-2.93951 4.04027,-3.50032 8.73316,5.06121 15.35164,-5.71782 7.40715,-5.79492 2.95871,-14.33075 9.52647,-7.88623 0.0692,-12.56423 -3.70589,-6.53565 -4.36082,2.33432 -10.1883,-5.13832 0.6826,-7.06841 2.63125,-6.99363 13.18392,1.40902 1.95555,-15.5318 7.96525,-14.01529 -3.49604,-17.09035 1.53124,-5.7482 -10.73484,-7.53106 2.90796,-16.89874 6.58852,-7.14317 8.56481,-1.11926 25.88124,-2.4278 6.78683,-0.47668 2.18155,6.30199 4.50379,10.6575 -3.57674,6.22489 7.49248,4.43731 3.43838,-2.66145 0.96856,-7.55678 -3.68744,-8.01943 5.99122,0.44397 10.07299,6.68519 -3.75661,-14.277 5.69605,-16.58797 15.86357,4.49107 14.20321,-3.59379 -13.76043,-6.74828 -1.95786,-9.0195 6.54005,-4.06581 -5.83671,-4.52611 -2.76731,-5.89305 3.82581,-3.17787 1.57736,-5.45377 -15.57302,3.18253 -1.37673,-7.28104 15.32857,-5.01446 5.04111,-7.76707 -10.70945,-16.97119 -7.49943,-13.828352 1.03083,-11.386553 2.69813,0.635572 42.48739,-5.245805 5.869,5.273841 13.05477,13.886777 6.27716,12.0455 -0.44738,9.1784 -5.81135,7.05206 10.27594,-2.01422 3.94341,8.68538 3.65516,-3.1428 6.54007,0.85754 5.42853,6.27395 10.40737,2.94886 20.02841,-4.84157 1.76644,8.34657 -1.62579,5.95381 -1.30754,4.97709 -15.36317,11.76508 7.30109,7.66659 15.01955,-5.40938 2.62434,7.21096 10.54574,-0.23367 8.07131,-15.57618 24.44684,-5.43508 13.90803,-9.356 17.49169,-10.65051 5.76754,4.55882 9.15747,-6.83941 4.24552,7.29507 1.94864,6.36975 14.6575,11.56647 4.204,2.94652 12.14848,-4.7808 3.60441,4.77846 1.36291,13.54331 0.8302,8.99615 3.57905,4.04009 8.19354,4.93269 8.58324,-0.89728 0.65264,5.14766 4.65368,1.0001 7.37948,32.81609 -5.04802,20.29391 -9.02602,5.71079 -1.18305,12.70443 9.02605,3.9326 15.77364,16.55059 -5.01113,15.16728 2.17234,6.9095 7.21576,5.60565 -0.47044,11.6062 3.03479,3.85783 -2.74653,11.12486 -4.93504,4.69434 -0.16153,7.24132 7.52937,10.1972 -2.63817,9.73921 10.79022,7.08476 6.50776,18.18859 -10.03148,26.01873 -3.28848,4.26206 -7.93526,-2.6895 -0.71488,-10.33973 -7.11659,-4.50507 -10.073,2.70351 6.52854,8.09886 -5.85748,3.14517 -6.58618,3.58676 -12.10927,1.79455 -2.87108,6.26693 -16.97743,0.89494 -2.6151,8.04048 -4.06104,-2.67782 -8.27654,2.26422 -2.23922,8.43301 -8.82772,0.44398 -1.80566,6.66648 h -10.20216 l -9.74785,7.39789 -6.79145,-1.18703 -6.00043,6.63844 -5.61764,6.18516 0.87172,2.02822 5.95894,13.8237 9.54029,3.56807 -3.58368,9.12234 -1.85178,14.73266 3.66667,3.10308 0.85095,8.43535 5.62225,6.25292 11.04387,9.52422 4.33544,-2.58435 13.24158,18.49235 9.95539,6.09402 4.25241,7.17588 5.05264,-2.99326 3.79584,6.40947 4.79896,1.28049 10.33129,22.50906 -15.74829,9.20411 -10.08223,-5.36265 -3.05787,0.97441 -0.89938,11.92866 -3.74969,6.07064 -22.35754,10.41685 -8.42645,7.97502 12.43443,19.97613 -4.55914,10.30233 7.73232,0.47902 1.27987,5.49816 -2.26458,11.92401 -1.89558,1.90437 -10.1814,-6.19217 1.11155,-5.72482 -3.35538,-4.06112 -13.04093,2.14973 -4.51531,-4.78079 -10.00844,1.19635 -2.11929,6.21086 -28.88377,1.19402 -2.88263,5.96084 -7.37487,0.47668 -1.01927,4.52144 -8.71242,3.56808 -13.73276,0.71268 -1.35136,-4.99345 -2.14697,-5.00044 -11.38057,-3.09843 -6.04886,1.90672 -5.49772,-1.43003 0.75871,9.52424 -10.45582,11.87256 h -4.96039 l 1.80103,-6.73659 -6.00964,-1.33189 0.24906,-5.70614 -4.49458,-1.66603 -2.37757,-4.76447 -5.75139,-0.23833 -2.22307,-3.81576 -3.77968,4.76912 -8.5233,-0.47668 -15.3332,-9.06858 -19.67785,-0.23833 -3.45914,-3.11012 -4.59373,0.47902 -0.39664,-5.26449 -16.37093,6.93755 4.11868,6.92586 -8.1751,0.71502 -6.42244,-3.81811 -13.11244,5.48883 -6.24489,-3.33909 -6.29793,4.05409 -6.25642,-3.10074 z m 340.92995,-512.58191 -3.95956,-1.50014 -2.03397,-1.94411 -10.31976,3.15684 -2.58742,-10.5033 0.0462,-8.48209 14.97112,11.21131 3.87655,8.06149 z"
     style="fill:none;fill-rule:evenodd;stroke:#000000;stroke-width:23.2134;stroke-linecap:round;stroke-linejoin:round;stroke-miterlimit:4;stroke-dasharray:none;stroke-opacity:1"
     id="path1027"
     inkscape:connector-curvature="0" />
</svg>
