<?xml version="1.0" encoding="UTF-8" standalone="no"?>
<!-- Created with Inkscape (http://www.inkscape.org/) -->

<svg
   width="1000"
   height="800"
   viewBox="0 0 1000 800"
   version="1.1"
   id="svg1911"
   inkscape:version="1.1 (c4e8f9e, 2021-05-24)"
   sodipodi:docname="drawing_8.svg"
   xmlns:inkscape="http://www.inkscape.org/namespaces/inkscape"
   xmlns:sodipodi="http://sodipodi.sourceforge.net/DTD/sodipodi-0.dtd"
   xmlns="http://www.w3.org/2000/svg"
   xmlns:svg="http://www.w3.org/2000/svg">
  <sodipodi:namedview
     id="namedview1913"
     pagecolor="#ffffff"
     bordercolor="#666666"
     borderopacity="1.0"
     inkscape:pageshadow="2"
     inkscape:pageopacity="0.0"
     inkscape:pagecheckerboard="0"
     inkscape:document-units="px"
     showgrid="false"
     units="px"
     inkscape:zoom="0.35779921"
     inkscape:cx="368.922"
     inkscape:cy="480.71654"
     inkscape:window-width="1459"
     inkscape:window-height="878"
     inkscape:window-x="1843"
     inkscape:window-y="436"
     inkscape:window-maximized="0"
     inkscape:current-layer="svg1911" />
  <defs
     id="defs1908" />
  <path
     d="m 301.92665,213.91778 9.92026,1.4508 13.44598,16.8989 10.26452,20.32422 3.93023,16.46292 -3.10546,11.65136 -4.56854,13.22329 -0.0559,10.453 2.06552,3.98969 6.92811,2.11092 16.04226,-1.03007 15.43619,-0.72541 15.02454,-8.10269 11.85525,-9.29889 12.22676,-13.57221 7.15763,-10.14688 10.9975,-24.47714 1.57064,-5.17934 6.26113,-3.99695 10.22218,0.84871 18.36022,13.87689 13.97817,6.9203 15.37236,4.17104 9.58534,0.21764 8.87889,-1.2767 8.05983,0.58031 10.96237,-2.51713 4.46093,-2.77828 5.40048,-7.6544 6.46913,-20.71812 4.07368,-15.18042 4.68329,-4.57002 18.40396,-7.07263 11.89685,-7.62467 4.64026,-5.15758 4.14538,-14.17937 2.02968,-13.53087 7.27165,-7.54559 14.02476,-7.57896 6.79903,-4.83116 10.98744,-12.32308 13.15553,-17.3762 5.69452,-2.41558 14.02046,-1.58137 9.52511,-5.12131 7.27737,-6.884033 5.94557,-8.645303 1.2766,0.884986 13.51054,0.507779 11.19972,2.89434 18.57611,8.492246 5.80212,-0.362698 9.9389,-3.03217 8.30799,0.507779 10.27241,2.604182 6.41175,4.715092 2.99069,3.85186 5.52958,25.30554 3.38519,20.02535 8.29077,14.64871 6.18941,20.12112 2.76838,14.46807 1.36264,16.3309 -1.0686,27.94889 -0.57375,17.38563 1.76431,7.02186 -27.18892,-12.64878 -5.24272,4.30888 -12.33862,21.19107 -5.26421,12.30784 -0.0717,7.07264 7.31253,14.73357 5.74471,10.14908 8.61282,7.05085 12.58752,2.3938 11.15455,-0.0725 1.4344,-12.99477 1.20488,-4.33065 5.87384,-4.04772 2.45282,-0.29018 3.61464,-1.25493 24.98783,-0.21764 -3.41385,26.12381 -6.59819,18.61951 -3.40667,4.04773 -7.59011,2.19794 -1.75712,5.29543 3.74378,11.83273 -1.95796,10.31154 -4.65462,7.83067 -10.69339,10.05552 -17.32315,12.92006 -11.0986,16.72263 -25.95103,44.4372 -11.84019,18.85238 -23.32465,31.16095 -22.38801,24.24721 -15.56961,19.80628 -26.90416,23.83514 -25.88505,25.27073 -10.35344,8.89557 -18.5682,14.87356 -12.69437,6.96382 -14.68387,2.3503 -18.3925,-0.29031 -10.31183,1.68292 -2.47434,8.28262 0.21527,2.98135 -2.05118,1.99484 -8.4328,-2.29953 -10.38643,-2.95961 -5.68021,0.36272 -4.69046,4.65708 -5.11359,7.31853 -4.2243,2.66947 -6.77034,-1.31298 -14.40272,-9.59195 -14.25427,-3.9389 -10.16624,-0.2903 -5.81647,2.66946 -7.12892,6.32548 -9.05461,-2.29949 -12.09909,-4.93999 -5.52959,2.33581 -11.9736,1.02281 -11.04984,5.0125 -13.67763,12.67415 -13.50554,2.03112 -8.27929,-0.28998 -12.5201,-1.96583 -13.85193,1.7047 -10.79308,4.69329 -15.52873,19.42836 -23.48029,-13.65416 -1.73561,-12.00244 -4.08802,-4.31613 -8.96854,-1.30572 -5.27139,2.00935 -4.8339,-11.28722 -6.42608,-1.31295 -2.80423,5.98454 -0.64547,4.65705 -5.87384,-2.64769 -2.23048,-5.30995 4.99886,-11.6187 1.92925,-9.92708 -16.10176,-31.56936 -6.06031,-6.54308 -2.51019,-5.23013 3.2489,-3.93168 11.92984,-1.01554 3.22021,-9.80305 1.126,-18.88358 -3.05526,-15.23626 -3.49275,-11.95676 -11.45792,-26.05994 -14.07138,-23.35423 -8.85236,-20.39241 -11.5031,-31.06664 -12.10627,-32.75541 -10.76727,-18.16763 -8.17388,-10.34053 2.86878,-1.50884 10.9523,-5.97006 5.95991,-9.17267 2.044,-4.78037 6.29698,-2.55341 6.17507,2.79279 11.94705,7.65803 3.629,4.89644 0.78175,7.60947 1.03994,11.70067 5.54392,4.70059 9.69147,0.87775 16.75154,-1.05909 13.97959,0.92852 10.90784,3.68501 8.00032,-0.76165 10.91071,-11.04641 10.23295,-6.69542 8.53033,-7.04364 1.06862,-4.52649 -0.50203,-49.37933 -0.57376,-41.2636 0.14344,-74.07047 z m 333.91933,285.60621 7.74142,-1.01554 3.65051,-12.47616 11.86315,-7.72621 19.43384,-6.81148 4.93433,-4.48296 10.93149,-22.57224 5.0132,-7.29971 2.67516,-5.38245 -1.96514,-5.02702 -18.14577,-16.54559 -6.1894,-7.48905 -7.92503,-5.90474 -5.76624,1.9223 -18.68297,7.96417 -12.20738,7.30477 -9.62479,12.65093 -5.17096,9.80959 -12.98841,13.6803 2.2663,9.1712 10.90929,19.30577 5.35746,8.24777 z"
     style="fill:none;fill-rule:evenodd;stroke:#000000;stroke-width:19.0615;stroke-linecap:round;stroke-linejoin:round;stroke-miterlimit:4;stroke-dasharray:none;stroke-opacity:1"
     id="path247" />
</svg>
