<svg xmlns="http://www.w3.org/2000/svg">

  <symbol id="icon-1" viewBox="-10 -10 50 50">
    <circle cx="5" cy="5" r="4" fill="rgb(100,100,100);"/>
    <circle cx="10" cy="15" r="20" fill="rgb(100,100,100);"/>
  </symbol>
  <symbol id="icon-pacman" viewBox="0 0 32 32">
    <path d="M30.148 5.588c-2.934-3.42-7.288-5.588-12.148-5.588-8.837 0-16 7.163-16 16s7.163 16 16 16c4.86 0 9.213-2.167 12.148-5.588l-10.148-10.412 10.148-10.412zM22 3.769c1.232 0 2.231 0.999 2.231 2.231s-0.999 2.231-2.231 2.231-2.231-0.999-2.231-2.231c0-1.232 0.999-2.231 2.231-2.231z"></path>
  </symbol>

  <symbol id="Germany" viewBox="0 0 1000 800">
    <path d="m 345.88,693.12 -3.23,-8.08 5.08,-24.02 -2.31,-2.77 2.31,-10.16 7.39,-12.93 2.3,-12.46 2.31,-7.39 22.17,-28.4 -14.09,-6.93 h -11.08 l -10.62,-3.23 -2.31,-6.7 h -5.54 l -2.31,2.31 -15.93,2.31 v -5.08 l -9.24,2.31 -7.85,-9.7 -9.92,-11.31 -2.31,-12.7 5.77,-5.08 v -10.39 l -10.62,-3.46 -9.7,-11.09 -2.31,-10.85 9.7,-13.62 v -17.09 l -6.7,-13.16 -7.85,-6.46 3.7,-10.39 -3.24,-7.85 -4.15,-2.31 2.31,-3.46 5.54,-4.85 5.31,-5.08 -4.39,-4.39 4.62,-10.16 2.31,-5.54 -3.69,-10.85 -2.31,-9.93 -8.78,-6.7 2.31,-6.92 8.08,-2.77 3.93,-3.47 8.77,4.85 15.47,-5.54 7.39,-5.77 2.77,-14.09 9.7,-7.85 v -12.46 l -3.7,-6.47 -4.38,2.31 -10.16,-5.08 v -6.93 l 2.54,-6.92 13.16,2.31 2.31,-15.24 8.08,-13.86 -3.7,-16.85 2.31,-5.77 -10.85,-7.39 3,-16.63 6.7,-7.15 8.54,-2.31 25.86,-2.31 h 6.7 l 2.31,6.23 4.38,10.39 -3.46,6.24 7.39,4.38 3.46,-2.54 v -7.62 l -3.46,-7.85 h 5.77 l 10.16,6.47 -3.7,-14.08 5.78,-16.4 15.7,4.62 14.31,-3.69 -13.85,-6.7 -2.31,-8.77 6.47,-4.16 -5.78,-4.39 -2.77,-5.77 3.7,-3.23 2.31,-5.31 -15.47,3 -2.31,-7.16 15.24,-4.85 5.08,-7.85 -10.63,-16.62 -7.62,-13.62 2.31,-11.318 h 2.54 l 42.72,-5.311 5.77,5.311 13.16,13.628 6.24,12 v 9.01 l -5.78,6.92 10.16,-2.31 3.93,8.55 3.69,-3.24 h 6.7 l 5.31,6.24 10.39,2.77 20.09,-4.62 2.3,8.08 -2.3,6.01 -2.31,4.84 -15.47,11.78 7.39,7.39 15,-5.31 2.77,7.16 h 10.39 l 8.08,-15.47 24.48,-5.31 14.08,-9.24 17.32,-10.39 5.77,4.39 9.24,-6.7 4.39,7.16 2.3,6.23 14.78,11.55 4.16,2.77 12.23,-4.62 3.47,4.62 2.31,13.39 v 9 l 3.46,3.93 8.31,4.85 h 8.54 v 5.08 l 4.62,2.31 7.39,32.32 -5.08,20.09 -9,5.54 v 12.7 l 9,3.92 15.7,16.17 -4.85,15 2.31,6.93 7.16,5.54 v 11.55 l 3,3.69 -2.54,11.08 -5.08,4.62 v 7.16 l 7.62,9.93 -2.54,9.69 10.62,6.93 6.7,18.01 -10.16,25.86 -3.23,4.16 -8.08,-2.77 v -10.16 l -7.16,-4.39 -9.93,2.54 6.46,8.08 -5.77,3.23 -6.69,3.47 -12.01,2.31 -3,6 h -16.86 l -2.77,8.08 -3.92,-2.77 -8.31,2.31 -2.31,8.31 h -8.78 l -2.31,6.46 h -10.15 l -9.93,7.39 -6.7,-2.31 -6,6.47 -5.54,6.23 v 2.31 l 6,13.62 9.7,3.47 -3.7,9 -2.31,14.55 3.7,3 v 8.31 l 5.54,6.24 11.08,9.46 4.39,-2.54 13.16,18.24 9.93,6.01 4.39,7.15 5.07,-3 3.7,6.24 4.85,2.31 10.39,22.16 -15.93,9.24 -9.93,-5.31 h -3.23 v 11.77 l -3.93,6 -22.4,10.16 -8.31,8.08 12.47,19.63 -4.62,10.16 h 7.62 l 2.31,5.54 -2.31,11.78 -2.31,2.31 -10.16,-6.24 2.31,-5.54 -3.46,-3.93 -12.93,2.31 -4.62,-4.85 h -9.93 l -2.31,6.24 -28.86,2.31 -2.77,6 h -7.39 l -2.31,4.39 -8.77,3.46 h -13.62 l -2.31,-4.85 -2.31,-4.85 -11.54,-3.23 -6.01,2.31 -5.54,-2.31 v 9.47 l -10.62,11.77 h -4.85 l 2.31,-6.69 -6.23,-2.31 v -5.54 l -4.62,-2.31 -2.31,-4.85 h -5.77 l -2.31,-3.69 -3.7,4.84 h -8.54 l -15.47,-8.77 h -19.62 l -3.47,-3.23 h -4.61 v -5.08 l -16.4,6.92 4.16,6.7 h -8.08 l -6.47,-3.69 -13.16,5.31 -6.23,-3.24 -6.24,3.93 -6.23,-3 z m 341.25,-506.34 -3.92,-2.31 -2.31,-2.31 -10.39,3 -2.54,-10.39 v -8.31 l 15.01,11.08 3.92,8.08 z" />
  </symbol>
  <symbol id="France" viewBox="0 0 1000 800">
    <path d="m 816.38,618.85 2.01,4.84 v 7.05 l -2.01,13.1 2.41,2.02 2.02,9.07 -2.02,21.77 -4.23,8.87 -2.42,19.55 -5.84,13.51 -6.05,-2.02 -2.02,-5.44 -8.26,-2.01 -4.64,-4.04 5.85,-5.64 -2.02,-2.02 -8.87,-2.62 5.24,-9.07 -2.21,-2.01 -5.85,2.01 -2.01,-4.03 h 2.41 l 3.43,-4.23 -2.01,-4.24 -5.25,-2.21 v -4.44 l 4.84,-3.22 -5.64,-6.05 4.84,-7.66 12.09,-8.47 h 5.44 v -3.42 l 5.85,-2.02 4.03,2.82 2.02,-3.83 v -9.47 l 2.01,-6.05 z m -506.37,-19.56 7.46,-3.42 8.26,-10.08 11.09,-64.71 8.06,-2.42 -4.23,-8.26 -4.64,7.25 2.62,-32.65 4.44,-23.59 2.42,4.24 9.87,8.87 4.03,11.08 3.83,6.45 -5.64,-19.35 -12.9,-16.73 -4.84,-6.65 v -7.26 l 7.06,-13.91 -4.04,-10.88 -4.03,-8.07 -6.45,-6.24 -13.91,-2.83 -10.48,-16.93 -8.26,-9.47 5.44,-12.5 -4.64,-5.44 -6.85,-3.83 -10.28,-4.24 -3.83,-5.24 5.04,-11.29 -6.65,-5.04 -10.28,5.24 -9.88,-7.45 -16.73,-7.46 -12.5,-5.44 h -6.45 l -4.44,-7.46 -18.34,5.04 -2.02,-7.66 -5.24,-3.83 -7.46,-2.02 -2.01,-3.02 17.33,-2.62 -2.01,-6.86 -10.69,-3.22 9.08,-3.23 2.01,-6.25 h -5.44 -5.44 l -8.27,2.42 v -13.3 h 6.25 l 6.05,-4.44 10.68,-2.82 11.29,-5.24 4.43,5.64 3.63,-5.04 9.48,2.02 2.42,-8.06 5.44,-2.02 15.52,-2.42 7.86,11.29 5.45,7.86 7.05,2.62 13.1,-8.26 6.45,5.04 5.65,-3.83 9.07,-3.83 v 7.05 l 12.09,-2.01 6.05,-3.03 -5.44,-5.84 v -7.66 l 2.01,-10.69 v -13.1 h -2.62 l -11.28,-21.16 -2.22,-12.7 18.54,3.83 12.3,-3.23 -2.02,12.5 5.04,12.9 6.86,-4.44 24.99,3.23 10.28,4.43 h 2.02 l 10.48,-2.82 13.51,-8.46 -10.89,-3.83 2.02,-6.25 3.22,-5.45 15.32,-10.07 15.12,-5.65 18.35,-6.85 6.24,-7.46 6.25,-8.27 -2.01,-24.59 2.82,-17.33 10.48,-8.067 9.27,-5.04 18.55,-3.024 3.63,-3.023 4.03,14.312 6.45,10.682 5.24,4.23 2.82,-2.41 8.27,-6.66 3.22,5.45 4.04,14.71 3.83,4.23 h 10.48 l 3.22,9.48 h 5.24 l 11.7,2.02 7.66,5.24 -3.23,7.66 2.02,5.64 -2.02,6.05 5.85,3.83 8.26,-2.22 8.87,-2.02 4.03,-9.87 4.84,-2.22 -2.42,11.69 3.02,5.65 v 7.25 l 10.69,2.02 6.85,6.05 7.46,6.45 2.62,7.05 14.11,-5.44 2.02,3.63 12.9,2.01 h 11.49 l 2.82,2.02 8.67,9.88 6.85,8.46 8.07,-2.01 v 4.43 l 13.9,-2.01 2.02,-2.02 h 4.84 l 2.01,5.85 9.28,2.82 h 9.67 l 12.3,6.05 -19.35,24.79 -2.02,6.45 -2.01,10.89 -6.45,11.28 -2.02,8.87 2.02,2.42 -4.44,20.97 2.82,7.05 -7.86,9.27 h -9.47 v -2.82 h -9.07 l -4.44,9.07 h 3.23 l 2.21,2.62 -3.42,2.02 -10.69,14.72 v 2.21 l -11.69,7.06 v 9.27 l -14.51,12.3 -2.02,8.67 2.02,4.03 v 9.47 l -4.84,6.65 7.46,3.23 17.33,-19.55 12.3,-4.44 6.45,23.59 2.02,12.49 -12.7,8.67 10.88,10.08 V 459 l 8.67,5.64 -4.03,7.86 -10.89,10.08 -3.62,-3.23 -8.87,5.25 7.05,10.28 12.5,5.44 2.82,9.47 h -3.63 l -6.45,10.49 4.03,12.49 15.12,11.09 17.14,-2.02 2.01,7.87 -3.02,13.1 -7.06,6.45 -4.43,6.05 -16.73,13.7 -17.94,18.15 -8.67,2.42 -6.45,2.01 -16.13,4.44 h -8.26 l -9.48,-4.24 -17.13,-13.91 -6.45,-2.42 h -7.06 l -4.63,2.02 -10.28,-2.02 -15.32,-8.86 -12.1,2.01 -14.71,9.48 -7.26,7.25 -11.29,15.32 -3.02,10.69 2.01,14.11 2.02,10.48 -6.65,-2.62 -15.12,3.83 v 3.63 h -9.88 l -8.67,-5.24 -7.86,4.43 h -5.24 v -4.03 l -6.65,-2.62 h -4.24 l -7.66,2.22 -3.62,-2.22 v -7.86 l -2.02,-5.85 -25.2,-8.26 h -7.25 v 8.66 H 411 l -6.65,2.02 v -3.23 h -15.53 l -2.01,-3.22 v -2.02 l -8.67,-4.03 -2.62,2.02 h -5.44 l -2.02,2.01 -10.28,-10.88 -3.02,2.01 -21.97,-9.27 -2.22,2.82 h -3.03 l -2.01,-2.82 4.23,-6.85 -2.01,-3.43 -9.48,2.02 -9.47,-6.86 z" />
  </symbol>
  <symbol id="South Africa" viewBox="0 0 1000 800">
    <path d="m 305.69,227.59 9.6,1.81 12.85,15.75 9.95,19 3.8,15.39 -2.89,10.86 -4.53,12.31 v 9.77 l 1.99,3.8 6.7,1.99 15.57,-1.81 h 14.84 l 14.48,-7.6 11.4,-8.69 11.95,-12.67 6.87,-9.41 10.68,-22.99 1.81,-4.7 5.98,-3.8 h 9.95 l 17.74,13.03 13.57,6.51 14.85,3.8 h 9.23 l 8.5,-1.81 h 7.79 l 10.68,-2.35 4.34,-2.71 5.25,-7.06 6.15,-19.37 3.99,-14.12 4.52,-4.34 17.74,-6.52 11.58,-7.24 4.35,-4.7 3.98,-13.22 1.99,-12.67 7.06,-7.06 13.57,-7.05 6.52,-4.53 10.68,-11.4 12.67,-16.29 5.61,-2.17 13.39,-1.81 9.24,-4.71 7.05,-6.34 5.8,-8.14 1.81,1.81 h 13.03 l 10.86,2.71 17.92,7.97 h 5.61 l 9.59,-2.9 h 7.97 l 9.95,2.54 6.15,4.34 2.9,3.62 5.43,23.53 3.26,18.82 7.96,13.58 5.98,18.82 2.71,13.4 1.81,15.38 -1.81,26.07 v 16.11 l 1.81,6.51 -26.24,-11.76 -5.07,3.98 -11.95,19.91 -5.07,11.4 v 6.7 l 7.06,13.75 5.61,9.42 8.33,6.51 12.13,2.36 h 10.86 l 1.81,-12.13 1.81,-3.98 5.61,-3.8 h 2.35 l 3.62,-1.81 h 24.07 l -3.25,24.25 -6.34,17.38 -3.44,3.8 -7.24,2.17 -1.81,4.89 3.62,11.04 -1.81,9.59 -4.52,7.24 -10.32,9.41 -16.65,12.13 -10.86,15.56 -24.98,41.45 -11.4,17.56 -22.63,29.14 -21.54,22.63 -15.2,18.46 -25.88,22.26 -24.98,23.53 -10.14,8.33 -17.92,13.93 -12.31,6.52 -14.11,2.17 h -17.74 l -9.96,1.81 -2.35,7.79 v 2.71 l -1.99,1.81 -8.15,-1.99 -9.95,-2.9 h -5.61 l -4.53,4.35 -4.88,6.88 -4.17,2.53 -6.51,-1.81 -13.94,-9.05 -13.76,-3.62 h -9.77 l -5.61,2.53 -6.88,5.98 -8.87,-2.18 -11.58,-4.7 -5.43,2.17 -11.59,1.81 -10.67,4.71 -13.22,11.76 -13.03,1.81 h -7.96 l -12.13,-1.81 -13.39,1.81 -10.32,4.53 -15.02,18.1 -22.81,-12.85 -1.81,-11.05 -3.98,-4.16 -8.69,-1.81 -5.07,1.81 -4.52,-10.5 -6.34,-1.81 -2.71,5.61 v 4.35 l -5.8,-2.54 -1.99,-4.88 4.71,-10.86 1.99,-9.23 -15.57,-29.51 -5.97,-6.15 -2.35,-4.89 3.08,-3.62 11.58,-1.81 3.08,-9.23 1.81,-17.56 -2.9,-14.29 -3.44,-11.05 -11.04,-24.43 -13.57,-21.72 -8.69,-19.01 -11.04,-28.96 -11.77,-30.58 -10.32,-17.02 -7.96,-9.59 2.9,-1.81 10.49,-5.61 5.8,-8.51 1.99,-4.52 5.97,-2.36 5.97,2.72 11.59,7.06 3.62,4.52 v 7.24 10.86 l 5.43,4.35 9.41,1.81 16.11,-1.81 13.57,1.81 10.5,3.43 h 7.78 l 10.5,-10.31 9.96,-6.16 8.14,-6.69 1.81,-4.17 V 334.02 295.65 226.5 Z m 322.54,266.43 7.61,-1.81 3.44,-11.58 11.4,-7.24 18.82,-6.34 4.89,-4.16 10.5,-21.18 4.89,-6.69 2.53,-5.07 -1.99,-4.71 -17.38,-15.38 -5.97,-7.06 -7.78,-5.43 -5.62,1.81 -17.91,7.6 -11.77,6.7 -9.41,11.76 -4.89,9.23 -12.67,12.67 2.17,8.69 10.68,17.92 5.07,7.78 z" />
  </symbol>
  <symbol id="India" viewBox="0 0 1000 800">
    <path d="m 717.16,406.62 v -4.94 l -6.22,-26.66 -0.99,-6.22 H 706 l -2.86,1.18 -3.85,12.54 -2.17,3.76 -5.34,-4.84 -2.47,-2.87 -2.27,-2.96 v -4.15 -5.62 l 1.29,-3.07 6.51,-3.85 4.94,-1.38 9.28,-8.39 1.58,-3.65 v -8.69 l -0.98,-1.39 -1.09,-0.98 -24.49,-2.18 h -5.53 l -9.08,0.99 -5.33,-0.99 -5.34,-1.18 -0.98,-1.09 -0.99,-7.9 -0.99,-5.23 -1.28,-3.55 -4.15,-0.99 -4.84,0.99 -3.65,-2.87 -3.36,-2.96 -12.34,-3.36 -2.37,1.88 -5.43,5.82 -1.28,3.07 0.98,1.77 4.84,2.57 12.15,10.27 1.18,1.28 v 1.68 l -3.85,1.09 -4.94,1.38 -3.95,3.26 -5.43,6.71 3.36,3.46 10.27,4.74 1.97,2.27 v 2.86 l -5.03,8.3 v 2.76 l 3.45,4.84 3.26,15.21 3.95,18.95 1.48,5.73 -1.68,3.46 0.99,1.87 -3.16,0.99 -3.55,-0.99 -1.38,-7.5 -1.98,-0.99 -2.57,3.75 -1.68,3.76 -1.67,0.98 -1.09,-0.98 -2.86,-6.32 -1.48,-1.88 -4.05,5.73 -5.04,3.16 -9.77,4.24 -5.63,2.27 -2.67,2.47 -0.99,1.19 1.09,6.12 1.78,4.34 -3.26,5.24 -3.06,3.45 v 2.77 l -5.43,4.34 -5.83,4.94 -4.64,1.88 -4.34,0.98 -7.31,2.18 -5.83,3.85 -4.54,6.02 -5.53,5.83 -8.69,11.05 -6.02,5.73 -6.71,2.86 -6.62,8.69 -6.71,4.84 -7.21,3.85 -4.45,2.47 -4.24,3.16 -1.88,5.33 -0.99,4.84 -3.45,4.15 -6.42,3.16 -4.25,0.99 -4.93,-1.09 -2.57,2.76 -3.65,9.19 -2.77,2.37 -4.94,-2.67 -6.12,1.48 -3.45,2.96 -3.06,5.83 -1.58,4.84 v 5.23 l 1.67,15.8 v 8.2 l -2.07,5.03 2.27,3.26 3.06,4.34 v 5.14 l -1.97,6.22 -6.62,16.29 -3.35,8.4 -1.39,6.41 0.99,6.62 2.07,17.77 -0.98,2.37 h -6.32 -4.35 l -1.77,1.38 -3.36,9.68 -3.16,5.93 v 1.28 l 4.94,3.55 -8,3.26 h -2.96 l -7.71,2.87 -2.86,4.04 -0.99,6.92 -1.58,2.56 -3.65,2.87 -5.14,2.56 -0.98,0.99 -0.99,0.99 -2.27,1.48 h -1.48 l -1.68,-0.99 -14.02,-14.51 -0.99,-3.95 -2.76,-5.23 -3.36,-14.03 -6.81,-18.07 -9.29,-19.45 -9.77,-15.2 -5.43,-17.48 -5.04,-18.27 -7.31,-16.69 -8.09,-14.51 -4.25,-7.5 -5.82,-14.82 -3.66,-11.94 -7.6,-33.97 -4.64,-28.14 -1.48,-16.39 -0.99,-2.57 2.27,-5.92 5.43,-8.79 v -3.36 l -3.95,-2.96 -3.65,-4.64 -1.09,-6.72 -1.08,-9.77 0.98,-6.62 h -8.29 l -1.88,2.27 -2.27,4.55 v 1.97 l 2.67,2.67 0.99,1.97 -0.99,4.64 -3.06,4.64 -4.94,3.85 -8,3.95 -5.03,1.19 -6.12,2.76 h -3.76 l -8.49,-2.96 -5.63,-4.05 -10.07,-10.56 -13.82,-13.53 -5.04,-7.5 2.67,-0.99 10.46,1.38 6.13,-0.99 4.34,-1.48 4.54,-3.06 5.24,-6.52 -0.99,-2.56 -1.58,0.98 -5.83,1.19 h -8.39 l -5.92,-1.29 -6.32,-1.38 -4.94,-2.37 -1.97,-0.98 -9.19,-7.21 -6.61,-8.3 -0.99,-2.17 h 3.65 l 2.96,-4.64 h 8.6 v -7.9 l 2.56,0.99 h 8.3 8.19 l 2.27,1.68 7.31,1.08 1.97,-3.65 7.71,-2.27 1.87,0.99 1.39,3.65 5.43,-0.99 1.48,-2.66 3.16,-0.99 -2.37,-5.04 2.27,-1.68 -6.42,-14.51 -2.17,-5.53 -1.09,-4.94 -5.33,1.09 -3.26,-1.09 -4.05,-4.44 1.48,-8.1 1.09,-7.6 h -4.15 l -5.03,-0.99 -5.34,-1.78 -1.08,-4.24 0.99,-2.96 1.87,-6.03 9.68,-9.97 1.48,-4.94 5.23,-5.23 4.05,-0.99 1.98,1.48 1.58,5.83 3.65,0.99 8.79,-3.46 h 7.3 l 7.02,-2.86 0.98,-4.35 5.53,-6.81 2.77,-5.43 1.77,-4.05 11.75,-5.63 4.74,-6.22 5.04,-13.82 3.46,-5.33 6.02,-1.58 3.55,-3.16 -2.56,-4.35 15,-17.38 2.28,-11.25 -1.78,-4.45 v -4.24 l 5.13,-2.87 6.42,-2.27 4.94,-2.37 1.97,-2.96 v -2.47 l -6.61,-4.44 -6.91,0.99 -1.88,-2.87 v -5.13 h -7.8 v -6.32 l -6.02,-3.46 -0.99,-2.96 2.07,-1.58 1.19,-5.63 -3.85,-2.76 1.38,-4.94 3.85,-1.18 v -4.15 h -5.93 l -0.98,-2.37 1.97,-1.78 V 102 h -3.26 l -0.98,-1.97 3.75,-7.41 8.79,-3.16 16.88,3.949 5.63,1.58 9.18,1.876 5.53,-3.258 2.57,1.382 2.66,-3.554 4.35,-1.58 6.22,1.283 1.19,2.074 2.36,-1.382 0.99,-5.727 1.48,-5.234 4.05,-2.764 6.81,-4.542 2.08,-0.988 4.94,-1.876 v 6.319 l 4.44,12.442 2.17,6.122 8,1.382 4.34,4.836 2.18,3.06 -3.26,2.67 -1.78,2.17 0.99,7.01 v 6.62 l 2.86,2.57 7.11,1.18 0.99,0.99 v 2.17 l 6.71,1.18 -1.08,4.84 3.65,8.2 -5.73,4.24 -3.65,3.36 -3.65,0.99 -3.36,-3.16 v -4.25 l -7.8,2.37 1.58,8.1 5.72,7.01 -1.08,5.14 2.76,4.24 -2.17,2.47 0.99,5.04 1.97,0.98 4.74,-3.65 3.76,2.86 7.6,9.78 3.65,-1.38 10.67,6.71 -1.19,4.15 7.51,2.86 1.48,-0.99 8.49,6.82 -10.57,10.46 -2.76,1.29 v 4.14 l -2.17,3.06 v 4.45 l -3.07,4.54 -2.17,4.84 v 2.76 l 6.22,4.35 4.64,-0.99 6.52,5.43 7.01,1.68 2.96,5.92 12.35,7.61 2.27,-1.78 10.17,6.62 5.33,-0.99 1.78,4.34 8.29,1.88 2.96,2.27 1.48,-0.99 0.99,-2.37 h 4.94 l 4.84,2.97 5.72,-3.95 4.94,3.35 6.32,0.99 1.38,2.57 -0.98,4.93 6.61,1.68 2.77,3.06 6.12,2.97 5.82,-3.16 3.06,0.98 v 3.66 l 3.07,2.76 3.75,-2.57 7.11,1.68 8.39,3.95 6.02,-3.26 2.67,4.05 3.95,1.29 3.46,-1.48 2.76,0.98 6.71,-1.48 3.36,0.99 3.06,-7.7 -4.24,-9.19 0.98,-9.77 3.16,-8.49 v 0 l 3.46,-1.48 4.64,-1.19 2.27,0.99 1.38,2.07 -0.98,9.58 2.07,7.41 -0.99,1.28 2.37,5.43 6.22,1.97 5.53,0.99 8.69,2.37 h 0.99 l 5.33,-0.99 5.33,-3.55 2.97,0.99 3.25,1.38 12.35,0.99 10.17,-0.99 6.22,-0.99 2.17,-6.42 v -3.16 l -2.57,-2.66 -3.06,-0.99 -3.26,-3.26 v -2.66 l 0.99,-1.68 1.88,-1.19 h 7.7 l 7.11,-2.47 3.95,-3.06 11.06,-12.34 5.43,-4.24 8.19,-2.87 10.96,-8.19 5.33,-3.36 3.56,-0.99 2.86,1.88 9.58,3.55 3.75,-0.99 13.63,-9.47 4.54,4.44 7.01,8.1 0.99,4.24 -3.56,5.14 -1.28,3.06 0.99,0.98 2.96,0.99 6.52,0.99 7.21,1.97 6.12,0.99 v 5.73 l -1.19,2.66 -5.82,6.52 -0.99,3.16 1.78,8 -2.97,0.99 -8.39,-2.47 -5.53,-0.99 -3.06,1.48 -7.11,5.73 -14.32,9.77 -1.97,3.86 0.99,8.39 -1.39,4.24 -9.28,12.45 v 2.27 l 1.88,4.54 v 3.55 l -11.36,24.39 -1.67,1.38 h -3.07 l -3.85,-1.18 -8.09,-3.46 -1.29,3.06 1.48,17.19 -1.87,3.85 -4.05,1.48 -2.17,1.97 1.48,9.98 v 7.3 l -2.67,3.95 -2.47,1.38 -2.56,-1.48 -5.83,-1.68 z" />
  </symbol>
  <symbol id="Egypt" viewBox="0 0 1000 800">
    <path d="m 687.69,125.76 2.93,8.3 19.54,55.19 20.51,49.34 -9.52,10.74 -11.48,32 -8.3,39.31 -4.16,16.37 -4.39,4.39 -10.01,-2.44 -10.99,-14.41 -19.05,-18.8 -9.53,-13.68 -8.3,-27.6 -12.7,-12.7 -7.08,-17.34 L 611,221 l -4.88,-10.01 -11.23,4.88 -6.6,14.66 14.66,37.61 3.41,10.5 15.39,23.93 22.71,29.06 11.73,33.22 12.94,26.62 6.59,22.47 9.53,12.7 22.47,47.37 26.13,51.29 10.5,19.05 14.41,14.65 10.99,9.53 3.66,4.88 -5.86,4.64 -6.84,2.69 -2.44,4.15 5.86,28.82 6.11,12.45 3.17,6.35 19.78,15.88 9.77,4.39 10.01,13.68 10.26,10.26 7.57,14.65 H 576.57 524.31 456.41 394.87 339.43 298.65 268.36 228.8 206.58 l -20.03,2.44 V 624.7 588.8 l -2.44,-75.47 v -18.56 -55.68 -40.3 -106.96 -27.6 -10.26 l -9.53,-25.64 -4.64,-26.62 2.45,-8.79 7.81,-15.63 5.62,-12.21 -8.55,-36.39 5.13,-9.77 9.03,-6.6 2.45,-6.1 8.3,4.88 h 13.43 L 231,108.42 h 19.29 l 36.88,8.3 14.41,3.42 19.05,3.42 17.58,4.39 8.55,11.73 h 9.77 l 22.71,2.44 24.42,11.23 15.39,2.45 6.1,-3.67 17.59,-15.14 22.71,-11.48 20.51,-5.37 19.05,-7.57 9.04,-2.44 8.55,2.44 h 13.19 l 17.58,3.42 4.88,13.43 14.66,10.5 12.7,-4.39 15.63,7.57 h 9.28 l 13.67,-11.48 5.86,5.13 6.84,2.44 16.61,3.91 8.3,-2.45 11.24,-4.64 12.45,-8.79 z" />
  </symbol>
  <symbol id="Italy" viewBox="0 0 1000 800">
    <path d="m 336.31,584.25 -5.67,-2.03 -5.07,-4.05 -7.49,-8.51 -2.03,-5.67 4.05,-19.45 2.03,-18.03 v -15.39 l -2.63,-15.2 -10.33,-11.74 -2.03,-7.3 3.65,-4.05 h 7.49 16.21 l 6.89,-4.46 17.42,-14.78 12.96,17.01 9.12,20.06 v 7.29 l -4.26,7.5 -2.83,12.96 3.04,23.7 -2.43,13.78 -7.5,18.23 -8.3,-5.06 h -10.54 l -2.84,2.63 -3.03,7.09 -5.07,4.46 z M 560.97,181.93 555.3,172.2 h -4.86 l -5.88,5.67 -3.04,-3.64 -9.52,-2.03 -2.43,9.32 -9.32,2.03 -20.25,10.53 2.02,-4.25 -9.32,3.85 -2.02,7.09 -3.24,2.02 v 3.45 l 6.28,2.43 v 8.71 l 3.84,3.24 5.27,6.89 -2.23,6.07 -9.11,7.3 v 7.69 l 2.83,15.81 15.8,23.09 40.93,24.92 5.87,9.92 2.63,15.6 5.68,15.4 7.9,16.2 14.18,15.6 5.06,7.7 9.12,5.27 v 5.67 l 8.3,4.66 23.71,6.89 25.52,-2.84 7.9,3.85 v 5.88 l -9.32,6.68 -5.26,7.9 5.26,5.88 19.45,7.69 23.7,10.94 16.82,9.93 32.21,19.85 2.02,4.86 14.59,12.16 6.28,12.76 -4.05,11.35 -3.04,8.91 -9.32,-7.29 -6.48,-4.46 -2.23,-12.96 -5.27,-4.46 -10.53,-2.63 h -9.73 l -8.91,-6.28 2.03,-5.88 -7.3,-2.03 -6.07,2.64 -4.66,6.89 -5.27,10.53 -5.47,5.67 v 7.09 l -4.05,8.11 v 7.9 l 15.6,8.91 12.35,7.09 -2.02,8.31 v 11.34 l 2.63,3.65 -3.85,6.28 h -13.37 l -8.51,5.67 -4.05,5.87 2.23,15.6 -10.74,7.7 -12.56,22.49 -12.15,2.02 -3.44,-2.02 -3.65,-3.65 v -13.17 l 7.29,-3.64 6.48,-13.98 -4.86,-4.86 7.5,-6.49 7.29,2.03 2.63,-4.46 -2.02,-8.91 -4.26,-4.66 -4.05,-24.31 -7.49,-13.57 -3.04,-16.01 -4.05,-9.31 -6.89,2.02 -3.85,4.46 -18.23,-13.17 -5.67,-2.03 4.05,-7.9 -2.03,-10.53 -9.32,-9.12 -18.43,6.69 v -3.04 l 6.68,-5.27 -5.67,-7.09 h -5.87 l -8.51,5.07 -4.86,-13.58 -4.06,-5.67 -2.63,-6.08 -13.37,-6.48 h -10.33 l -13.17,-3.44 -15.19,-9.52 -11.14,-12.16 -19.45,-16.61 -21.07,-22.69 -17.62,-10.53 -16.41,-18.44 -11.55,-23.9 -8.71,-29.17 -7.09,-12.36 -10.13,-12.97 -9.93,-6.88 -24.1,-9.73 -11.75,-4.05 -10.13,2.03 -21.88,18.23 -9.32,10.13 -13.17,4.86 -6.08,2.03 2.84,-13.17 -2.03,-7.9 -17.21,2.02 -15.2,-11.14 -4.05,-12.56 6.48,-10.53 h 3.45 l -2.64,-9.52 -12.56,-5.47 -7.09,-10.13 8.92,-5.47 3.64,3.24 10.94,-10.13 4.05,-7.9 -8.71,-5.47 v -8.51 l -10.94,-10.13 12.77,-8.71 12.15,2.03 12.76,-6.08 12.77,5.06 5.47,-4.66 7.09,-12.76 -2.03,-6.28 15.8,-11.75 v 12.16 l 10.94,10.53 6.28,2.23 -2.02,5.27 7.9,9.11 5.67,-4.45 v -15.6 l 8.71,-11.35 v -9.72 l 7.49,-2.43 2.84,10.33 4.66,4.25 h 4.46 l 2.02,-3.64 9.52,-2.03 5.07,9.73 4.45,-12.16 -4.86,-3.85 2.03,-8.1 5.67,-2.63 3.65,4.65 6.48,2.03 v -5.67 l -2.23,-6.28 2.64,-9.32 12.76,5.06 h 12.15 l 6.69,-12.154 7.49,-2.836 3.65,2.431 8.91,-3.241 6.28,3.038 17.22,-6.685 V 98.46 l 6.48,2.84 6.49,11.75 26.54,7.29 18.23,2.23 9.52,3.44 2.43,5.88 -12.36,8.91 2.03,4.46 h 6.08 l 3.84,5.47 -7.49,8.3 6.89,2.64 -2.64,10.53 7.3,3.24 5.87,5.68 -2.02,6.28 z m 51.46,530.35 -14.39,-2.23 -18.23,-15.39 -15.8,-6.08 -38.69,-20.87 -16.82,-3.24 -4.66,-3.24 -3.64,-7.29 2.83,-8.71 6.69,-8.71 5.27,-2.64 12.96,2.84 11.55,-8.71 13.77,10.94 8.11,3.64 h 14.58 l 28.57,-4.86 27.95,-8.51 3.04,2.23 2.03,3.24 -2.43,3.24 -10.74,21.27 -3.24,12.77 v 9.72 l 8.3,12.97 -3.64,3.24 -8.71,14.38 h -3.85 z" />
  </symbol>
  <symbol id="Switzerland" viewBox="0 0 1000 800">
    <path d="m 694.17,245.25 12.49,32.19 -17.09,26.95 13.8,28.25 -6.58,18.4 40.76,6.56 v 13.81 l 36.13,23.66 38.11,-32.2 14.47,11.16 v 16.44 l -8.56,30.22 7.24,20.38 v 18.39 l -21.03,-6.56 -11.82,-15.12 -18.4,8.54 -6.58,26.29 15.79,12.48 -14.47,39.43 -16.43,-31.54 -30.88,6.56 -6.57,11.84 h -14.47 l -15.12,-13.8 -9.19,-33.52 -24.3,7.88 v 31.56 l -28.26,36.79 v 50.6 l -18.4,14.46 -25.64,-29.58 6.58,-17.08 -20.37,-7.23 -35.48,-34.17 v -39.43 l -51.26,38.12 6.57,20.36 -22.99,40.74 -17.75,15.77 -41.41,-16.42 -41.39,19.71 -39.43,-6.56 -6.57,-40.75 -21.02,-76.89 -40.09,14.47 -56.51,63.73 -24.31,-10.5 15.76,-21.7 v -30.88 l -6.57,-13.14 6.57,-27.6 47.32,-40.73 v -30.24 l 38.11,-23 v -7.23 l 34.83,-47.96 11.16,-6.57 -7.22,-8.55 h -10.51 l 14.46,-29.57 h 29.56 v 9.21 h 30.89 l 24.96,-30.24 18.41,9.2 17.75,-11.83 17.73,9.2 37.46,-15.11 18.4,10.51 h 23 l -11.84,-19.05 46.67,-19.71 v 14.44 h 13.14 l 9.86,9.21 h 55.84 l 44.04,25.62 z" />
  </symbol>
  <symbol id="Austria" viewBox="0 0 1000 800">
    <path d="m 195.51,409.36 h 12.83 l 5.55,-7.28 3.47,5.55 h 8.67 l 3.46,7.28 6.94,3.47 v 8.32 l 9.36,3.47 -3.46,10.06 h 7.28 l 15.95,-17.69 v -14.22 l 8.32,3.47 9.02,-3.47 17.34,4.86 3.47,7.28 3.47,7.28 h 20.46 l 13.18,-5.2 3.46,-6.59 h 11.1 l 4.16,-9.02 43.35,-3.46 3.47,-9.37 h 14.91 l 6.59,7.28 19.77,-3.46 5.2,5.89 -3.47,8.67 15.26,9.02 3.47,-3.47 3.47,-17.69 -3.47,-8.32 h -11.44 l 6.93,-15.26 -18.72,-29.48 12.48,-11.79 33.64,-15.6 5.55,-9.02 v -17.69 h 4.85 l 14.92,7.98 23.93,-13.87 h 4.85 l 12.49,6.93 16.64,5.21 20.81,-8.67 26.01,-40.58 47.51,18.03 35.38,11.79 46.47,-9.71 19.07,10.76 3.47,4.85 3.47,4.86 -3.47,30.51 5.2,13.88 26.36,28.43 -21.85,14.92 v 19.07 l -24.28,3.47 -5.89,-6.94 h -11.1 l -7.98,10.06 15.96,3.47 4.51,10.4 -5.55,10.41 -14.22,3.46 v 19.42 l 7.28,9.71 -5.55,14.92 -11.79,15.26 -24.28,7.97 3.47,19.77 -30.86,-5.9 -10.41,10.06 -29.47,-4.16 -19.43,5.55 -22.54,25.32 -10.05,-7.63 H 559.3 l -6.24,-5.55 -36.07,-3.47 -16.65,-5.9 -31.21,-3.81 L 423.7,510.63 412.6,490.86 401.51,486 v -18.38 l -29.48,11.45 -10.75,-5.2 -15.26,5.54 -6.24,-4.16 -12.84,4.86 -11.44,20.81 h -20.81 l -21.85,-8.67 v -8.67 l -7.63,-5.9 -20.11,16.99 -19.07,-12.48 v -7.28 l -21.51,-3.47 3.47,-9.71 -7.28,-14.91 9.02,-14.22 z" />
  </symbol>
  <symbol id="Turkey" viewBox="0 0 1000 800">
    <path d="m 843.25,486.33 h -6.69 l -7.01,7.99 -2.61,2.61 -5.23,-2.12 -1.79,-5.54 v -5.39 l -4.4,-3.1 -6.04,-1.63 -3.92,4.9 h -5.71 l -13.21,-3.27 h -5.87 l -5.06,-3.26 -7.02,1.96 -4.4,2.93 -3.75,1.64 -1.63,-5.06 h -3.27 l -3.91,6.03 -11.42,6.2 -19.42,4.57 -11.58,-1.63 -12.23,-2.61 -7.18,1.63 -24.47,13.71 -9.3,2.61 -17.95,3.58 -9.13,-3.09 -25.13,-8.98 h -4.4 l -15.34,7.67 -12.07,1.63 h -9.46 l -12.73,-3.26 h -3.59 -2.28 l -1.63,6.36 1.63,9.3 4.08,8.48 -10.28,2.61 -2.61,7.51 -3.26,3.42 -2.78,-1.63 -1.79,2.61 -6.36,-2.44 h -5.06 l -4.08,-9.3 -1.96,-1.96 1.64,-3.43 3.91,-4.08 10.12,-8.15 v -3.59 l -1.64,-2.77 -4.56,-5.71 -2.45,-1.64 -7.83,7.51 h -3.92 l -2.12,1.63 h 1.63 l -1.95,4.4 H 500 l -1.63,-1.63 -1.63,1.8 -4.89,1.63 -5.39,-4.57 -7.34,-3.91 -7.5,-3.27 -6.53,1.63 -13.87,11.1 -5.38,5.87 v 4.08 l -2.28,1.63 -1.96,1.63 v 1.63 l -2.94,-3.42 -9.79,4.08 -11.25,3.75 h -9.79 l -9.63,-1.63 -11.09,-5.39 -15.66,-16.64 -19.25,-9.79 -16.97,-3.75 -11.26,1.63 -1.95,5.22 -1.63,12.4 -1.64,8.32 -2.93,3.27 h -4.08 l -4.24,-3.27 -18.27,5.06 h -6.86 l -6.36,-3.75 -10.77,-23.49 -6.85,7.17 -12.4,-9.13 -7.34,1.63 -9.3,8.32 -3.59,-7.67 1.64,-2.61 3.91,-3.42 -1.79,-3.59 h -16.15 -8.98 l -1.63,-5.55 9.3,-4.08 -1.63,-4.89 -4.57,-4.08 -7.5,-1.63 -1.63,-6.04 v -7.01 l 1.63,-5.88 -1.63,-5.22 -6.53,-2.77 -10.28,-7.18 -6.03,1.63 -4.41,-1.63 v -5.38 l 2.77,-10.44 2.13,1.63 7.83,6.36 9.3,-5.55 -6.53,-5.87 v -2.61 l -4.73,-2.77 v -2.61 l 9.3,-3.43 2.44,-2.28 -1.63,-2.94 -2.44,-1.96 h -5.39 v -3.91 l 2.94,-1.63 -2.77,-3.59 -3.27,-2.45 v -3.1 h -3.59 l 4.25,-3.75 4.89,-5.87 h 2.61 l 1.63,-3.43 -5.55,-1.63 -9.46,2.61 -14.68,3.42 h -2.77 l 1.63,-7.01 1.96,-2.77 v -4.25 -6.03 l 2.12,-5.55 h 4.89 l 2.94,-8.65 h 2.93 l 10.28,-8.97 h 8.48 l 2.13,-2.77 7.83,-1.63 2.12,4.56 4.24,2.29 h 2.77 8.65 l 2.45,-2.77 -1.64,-2.78 -4.24,-2.77 4.57,-1.96 5.38,1.63 1.8,1.63 -3.43,4.9 h 3.43 l 17.13,-1.63 10.11,1.63 6.2,1.63 4.57,1.63 2.61,-3.75 -1.63,-1.96 -7.67,-1.63 -3.42,-2.45 4.56,-4.57 22.68,-3.26 h 6.85 l 6.04,-2.45 h -7.18 -9.63 -3.58 l -1.64,-3.09 -9.95,-8.33 5.39,-11.41 15,3.09 20.4,1.64 4.24,-2.61 17.78,7.01 h 17.29 l 6.69,-5.22 v -5.87 l 10.12,-5.39 7.5,-4.73 19.91,-12.4 9.78,-4.73 16.97,-5.05 14.52,-1.64 12.4,1.64 14.84,2.77 13.06,1.63 12.23,-8.16 3.59,11.59 6.85,6.52 4.41,2.12 h 9.78 l 10.12,-3.1 7.34,16.15 8.16,5.55 9.3,-3.75 6.36,1.63 15.99,12.72 20.55,1.64 17.95,4.24 h 12.23 l 17.62,-5.88 8.49,-1.63 10.6,3.1 12.56,2.12 h 12.89 l 8.97,-3.1 24.8,-12.56 7.01,-7.18 19.74,1.8 8,1.63 3.75,-1.63 12.4,-7.83 6.69,1.63 21.7,22.19 v 0 l 13.05,15.66 v 4.24 l -7.02,17.46 v 8.81 l 4.57,4.56 23.17,2.61 7.99,9.47 -1.63,4.56 h -6.69 l -3.75,2.94 v 9.14 l -9.63,5.71 v 5.71 l 4.41,14.03 -1.96,7.99 3.59,10.28 1.63,2.44 1.79,-2.28 4.74,4.24 v 4.41 l -3.76,5.71 -4.56,11.09 -1.64,2.77 3.43,2.78 7.01,2.44 -2.44,5.06 1.63,8.65 6.85,7.67 h 4.57 v 6.36 z m -613.08,-228.56 3.91,4.73 v 6.2 l 1.96,6.36 1.63,1.63 9.79,7.84 13.38,5.22 9.95,3.42 2.45,2.61 -4.24,10.12 -5.06,3.59 -8.32,-1.64 -15.34,-5.38 -5.38,1.63 -3.43,3.27 h -16.64 l -5.87,8.32 -1.79,5.87 -13.54,6.85 -10.12,6.04 -3.59,5.54 -5.06,3.27 -4.24,6.2 -4.24,1.79 2.77,-5.55 v -2.93 l -1.63,-3.76 9.63,-6.36 3.59,-3.1 -3.75,-4.08 h -1.64 l -10.76,-1.63 -3.76,-3.26 5.39,-11.75 6.36,-12.07 11.09,-13.7 -2.12,-5.06 -7.01,-4.24 h -1.63 l 8.15,-9.79 10.28,-8.16 8,-1.63 8.64,2.45 h 21.86 z" />
  </symbol>
  <symbol id="Greece" viewBox="0 0 1000 800">
    <path d="m 594.88,705.68 3.24,-8.42 -3.24,-5.18 -26.23,-10.03 h -22.67 l -16.19,-4.54 h -15.86 l -3.89,-3.24 -3.24,-3.56 4.54,-22.34 h 10.03 v -3.56 -4.86 l 3.24,-3.24 3.24,6.15 v 5.83 h 10.04 l 5.5,3.24 5.83,-3.24 v -3.24 h 3.57 l 4.85,4.21 v 3.57 h -3.24 v 3.23 h 3.24 4.54 l 3.23,3.24 v 5.18 l 11.34,3.24 27.52,-4.86 h 16.52 v 5.18 h 6.15 l 19.75,3.24 10.04,3.24 11.66,-4.86 3.24,3.24 -3.24,12.31 5.18,4.21 h 3.56 l 10.36,-6.48 9.39,-3.24 3.24,3.24 4.86,-3.24 7.77,-5.83 -3.24,7.45 v 7.45 l -5.82,10.69 -19.11,-3.24 -11.33,3.24 h -10.69 l -64.76,6.8 z m -329.65,-418.05 18.78,-37.24 16.2,-20.07 12.95,-16.52 14.57,-35.94 h 3.24 l 26.23,-3.24 19.75,-6.15 12.95,-18.46 11.66,-6.8 11.98,3.24 20.08,3.24 17.16,-10.69 16.52,-6.8 h 3.23 l 60.24,-8.42 25.9,-11.33 19.11,-3.24 47.6,21.69 20.07,9.07 h 12.63 l 36.27,-11.98 3.24,-11.01 -3.24,-14.25 11.01,-9.39 h 11.98 3.24 l 13.93,8.42 4.2,10.04 -22.01,27.2 -12.63,23.96 -10.69,23.32 -3.24,-17.49 -25.58,-3.24 -24.29,-3.24 -18.45,-5.5 -3.24,-6.15 -14.9,8.09 -8.09,5.18 h -12.96 v -10.36 h -11.01 l -9.71,13.28 -13.93,8.09 h -10.03 l -10.04,-6.8 -8.1,3.24 v 5.51 l 5.51,8.09 5.5,14.57 9.72,3.24 26.87,26.23 -5.18,3.24 -11.98,-11.01 v -4.53 l -9.07,-3.57 -10.68,-4.53 -3.56,4.21 h -7.13 l 3.24,5.5 v 5.51 l 11.01,7.12 h 4.53 l 3.89,10.04 v 5.51 h -8.1 l -14.57,-19.43 -11.01,-6.15 -6.8,-3.24 h -3.88 v 4.21 h -3.24 l 4.53,7.12 3.24,4.53 5.18,5.83 6.15,3.24 h 5.18 l 3.24,3.89 -3.24,3.24 -16.19,-3.24 h -8.09 v -7.45 l -4.21,-12.31 -5.51,-8.09 -12.95,-4.53 -15.22,-15.87 8.1,-4.86 v -5.83 l -3.24,-5.18 -6.15,-3.24 -4.86,8.42 -14.9,7.77 7.77,9.39 -8.09,15.87 -3.24,10.36 4.21,5.18 3.24,7.45 10.04,14.25 4.21,3.24 4.21,20.08 18.78,17.81 11.66,19.43 -5.51,5.82 -7.77,3.57 3.56,-7.78 -3.88,-7.77 -4.54,-5.5 h -4.53 l -5.18,-3.24 -9.39,7.45 3.56,7.77 4.86,3.56 3.23,13.28 -6.15,7.77 -21.37,5.83 8.09,3.24 8.75,5.83 12.63,3.23 6.15,9.39 h 8.42 4.86 v 5.19 l 11.98,11.01 h 10.04 l 4.21,12.3 h 9.39 8.74 l 11.33,12.63 v 5.18 l -6.15,3.56 7.77,32.06 -5.18,7.12 h -5.83 l -7.45,-15.86 -7.12,-3.24 -6.8,-11.33 -3.24,-5.83 h -5.5 l -16.19,5.83 -15.55,4.21 -5.83,5.18 10.37,3.88 v 7.77 11.99 l 7.12,4.85 h 5.18 l 7.13,-3.24 v 8.42 l 7.77,7.13 -16.84,3.56 v 4.86 l -5.51,3.24 -10.03,-3.57 3.88,-8.42 -5.83,-3.56 -16.51,-3.24 -5.18,-3.88 v 8.42 l 6.47,18.45 6.16,7.13 v 6.48 l 6.8,8.41 6.8,38.86 -22.35,-12.63 -10.68,3.24 -9.72,17.81 -14.25,-29.79 -14.89,-14.89 -14.9,17.81 -13.92,-14.25 -3.89,-11.98 6.8,-17.49 v -9.72 l -6.8,-11 -16.19,-17.49 -5.18,-9.07 v -7.12 l 15.22,-25.26 19.75,4.21 13.93,-12.31 6.47,3.24 54.08,27.53 11.01,-4.21 15.87,-14.57 -8.75,-3.24 -8.74,-3.24 -39.18,-20.4 -36.59,-3.24 -11.66,3.24 -21.37,3.24 -13.93,6.15 -28.82,-46.63 8.42,-4.21 8.42,3.24 7.13,-4.86 3.88,-7.77 -11.01,-10.04 -7.77,4.86 -15.87,-3.24 -33.67,-30.44 -6.48,-13.6 z" />
  </symbol>
  <symbol id="Yemen" viewBox="0 0 1000 800">
    <path d="m 843.15,342.49 -8.39,2.99 -16.16,8.39 -19.76,17.66 -7.79,9.28 -5.09,16.17 -2.99,12.57 -12.28,10.18 -42.51,20.36 -68.27,19.76 -38.62,12.88 -25.15,9.58 -10.78,9.28 -14.07,19.46 -13.17,8.08 -15.27,3.6 -17.67,-3 -15.56,3 -24.85,13.77 -19.47,12.28 -28.74,12.27 -22.75,5.99 h -34.73 -16.77 l -8.98,3.89 -11.68,9.58 -8.08,9.28 -13.47,9.58 -15.27,7.49 h -11.68 -7.19 l -16.16,12.57 -25.15,3 -14.67,-3.3 -18.87,-13.47 -5.09,-4.79 -9.58,-13.47 -2.99,-7.79 5.39,-22.15 -3,-19.76 -9.28,-15.57 -10.48,-36.23 -17.06,-59.88 -3,-13.47 8.09,-22.16 -3.89,-23.35 20.95,-17.67 3.3,-17.66 v -21.26 l 3.29,-15.57 5.09,-5.68 6.59,-3.3 20.06,4.79 13.47,3.89 21.26,-2.99 H 268 l 36.23,76.65 39.22,84.43 61.08,-83.24 57.18,-71.25 11.68,-12.28 v -4.19 l 14.37,-7.19 138.62,-49.4 92.82,-32.63 34.73,-11.08 4.79,-2.99 2.99,20.96 6.59,20.06 18.26,30.83 27.85,42.82 3.89,8.08 v 9.28 l 14.67,21.56 7.18,9.58 z" />
  </symbol>

  <symbol id="Iceland" viewBox="0 0 1000 800">
    <path d="m 170.93,315.43 3.3,-11.01 11.56,-11.83 h 24.76 l 18.71,-6.6 -9.9,-15.14 -11.01,-22.84 8.53,-23.38 h 7.71 l 26.41,28.61 18.44,3.3 8.25,-11.28 -5.23,-17.61 -17.33,-25.31 10.18,-17.06 28.62,15.68 26.41,5.5 20.64,18.72 12.11,37.42 -3.03,27.24 -12.38,19.53 25.59,53.39 15.13,-23.39 9.63,-8.53 17.61,-7.71 13.48,-11.83 2.76,-14.03 -4.68,-52.56 14.86,-16.51 13.76,30.82 11.83,20.64 13.48,14.03 h 6.05 l 4.96,-8.8 -7.16,-30.55 6.61,-11 7.43,-2.76 22.56,-11.28 18.71,29.72 14.86,16.51 14.86,4.13 2.75,-12.11 -9.63,-36.05 27.51,9.64 39.9,5.5 21.46,-7.98 11.84,-15.41 V 174 l 32.19,5.5 17.61,32.47 30.82,22.01 h 18.71 l 7.7,16.24 -7.15,37.14 21.74,19.54 46.22,10.45 3.58,9.64 3.85,36.32 -2.75,25.31 -4.13,16.79 -4.4,16.51 -12.11,8.25 -22.56,2.75 -5.23,6.06 v 27.79 l -14.3,29.44 -13.76,10.18 -15.69,-2.75 -11.55,-10.18 -22.57,31.37 -14.86,9.08 -40.17,29.16 -23.39,6.88 h -20.08 l -21.19,6.05 -21.74,36.33 -12.93,7.98 -29.72,5.77 -19.54,-2.75 -36.32,-10.45 -16.78,-8.81 -35.5,-30.27 -29.16,-5.77 -12.11,4.12 h -28.62 l -50.63,-7.7 -8.25,-12.66 11.83,-12.11 31.09,-22.28 19.54,-37.43 h -22.56 l -14.04,-8.25 -11.83,-25.59 -7.15,-6.05 -9.63,5.22 -43.2,7.43 -15.41,2.75 -10.18,-14.58 3.85,-12.38 10.73,-8.26 18.44,-6.32 h 21.73 l 20.37,-7.43 28.89,-6.33 10.18,-12.66 4.95,-21.19 -3.85,-16.78 -9.91,-11.83 h -11.83 l -13.21,-9.36 -27.51,-3.3 -22.84,6.6 -11.56,10.73 -18.71,5.51 -28.62,-18.16 -4.4,-13.76 z" />
  </symbol>

  <symbol id="Ireland" viewBox="0 0 1000 800">
    <path d="m 701.9,297.4 -13.59,4.38 -9.65,6.58 10.53,18.85 15.78,57 12.72,89.01 -4.39,20.61 -15.78,24.55 -10.52,29.81 -6.58,34.2 -7.89,4.39 -12.72,-4.39 -26.75,4.39 -6.57,14.91 -40.34,4.38 -36.83,9.65 -10.96,10.08 -28.94,20.17 -39.46,35.52 -27.63,4.38 -38.58,19.73 -56.56,6.14 4.38,-26.75 -4.38,-31.57 -37.27,7.46 -7.45,-34.64 32,-18.41 H 282.3 l 4.38,-16.67 h 56.12 l 8.77,-7.45 v -15.78 l 4.83,-22.37 22.36,-9.64 30.69,-4.39 5.7,-20.6 -46.92,7.01 16.67,-31.57 -7.9,-11.4 21.05,-34.2 h 30.25 l 7.46,-6.58 -7.89,-22.79 -15.35,13.15 -13.59,-9.65 -13.6,4.39 -17.53,-13.16 h -17.98 l -7.89,7.9 -27.19,-12.72 13.59,-22.36 -12.71,-10.52 33.32,-9.21 -6.14,-22.36 17.54,-17.54 -21.48,-16.22 -25.87,9.64 v -36.83 l 17.1,-20.17 9.21,-11.84 40.77,14.03 14.91,-5.7 23.24,4.39 48.23,9.21 -9.65,-27.19 37.71,-21.04 8.77,-24.12 h -60.07 l 6.58,-11.4 24.99,-8.33 4.39,-21.92 12.71,-36.83 22.36,-13.59 35.52,-13.153 9.64,23.233 15.35,11.4 7.01,-4.39 v 18.42 l -17.1,36.83 -35.95,8.33 21.49,19.29 -37.71,21.05 4.38,21.04 17.54,21.05 34.2,14.47 32.89,-19.29 10.96,-27.63 14.9,8.34 11.4,19.29 15.79,10.96 -5.26,19.29 42.53,-5.26 z" />
  </symbol>

  <symbol id="Great Britain (UK)" viewBox="0 0 1000 800">
    <path d="m 635.58,472.96 12.77,10.33 4.26,7.1 4.26,12.56 v 6.49 l -11.15,18.85 14.59,5.88 7.91,-10.34 10.74,-4.05 12.16,2.02 16.42,5.88 9.52,11.96 4.87,24.93 -2.03,7.5 -6.49,13.58 -21.68,15.6 -15.61,18.45 -19.46,7.7 24.73,5.47 10.13,2.03 7.3,-3.45 7.91,3.85 -2.03,16.83 -20.27,9.93 v 6.28 l -9.73,-2.63 -21.68,14.18 -17.84,-4.45 -6.08,-2.03 -22.7,6.89 -11.96,-6.89 -12.16,3.65 -32.02,4.46 2.63,9.52 -18.44,-5.47 -5.27,5.47 -18.45,-10.74 -6.89,4.46 -18.44,2.84 -2.03,18.24 -6.69,9.93 -7.7,2.03 -5.47,-8.11 -10.74,-5.47 -2.64,4.86 -10.74,-2.43 -19.25,10.33 -14.19,17.44 -6.69,-7.3 -15.81,-4.66 24.53,-15 9.93,-15.2 9.12,-3.04 9.52,-12.57 2.23,-15.6 5.07,2.02 7.3,-6.69 v -8.91 l 20.47,-3.45 15.4,3.85 h 18.85 l 2.03,-10.94 6.28,-4.67 6.49,-18.03 -19.06,12.77 h -14.59 l -29.79,-15.81 -37.9,-2.03 -8.11,-6.28 -3.24,-5.27 8.51,-10.75 19.86,-6.28 14.8,-7.9 7.7,-12.77 2.02,-27.77 -2.43,-6.28 -14.39,2.02 -6.89,-2.02 5.88,-11.96 7.7,-7.5 16.42,-8.71 28.17,-2.03 18.85,-2.64 -6.49,-18.64 3.45,-23.31 5.27,-16.01 -2.03,-10.74 -16.82,2.02 -9.93,-10.13 -4.06,-10.95 6.29,-17.83 12.56,-15.2 -7.09,-3.65 -12.16,-3.04 -14.8,10.54 -9.72,2.02 -15.21,-7.7 -2.02,6.69 -4.46,6.89 -13.78,-3.65 -9.33,-4.66 2.03,-12.16 7.09,-12.77 12.16,-25.13 -5.87,-4.86 -6.29,-13.99 v -8.71 l 6.08,-3.65 6.08,-7.1 -3.85,-18.04 -6.28,2.64 -12.77,16.42 -9.12,2.02 -10.54,10.34 -2.84,-15.2 6.08,-19.26 8.92,-20.47 2.03,-9.32 -8.51,-7.3 -3.85,-2.02 -4.46,11.14 -7.91,9.53 -10.13,-6.08 6.08,-21.28 10.94,-16.82 2.03,-5.07 -4.46,-21.69 7.3,-3.44 4.66,-7.3 -13.58,-19.46 8.72,-13.37 15.2,5.67 7.9,-3.44 -13.17,-28.99 19.86,-6.685 -9.32,-19.25 8.51,-14.999 18.85,14.188 16.62,-3.648 13.98,-5.27 17.64,-2.027 h 12.36 l 6.28,10.134 -6.28,11.148 -35.06,27.149 -9.33,10.54 -4.46,16.83 4.46,6.89 16.01,2.02 17.84,-2.83 h 13.78 l 10.74,2.83 31.82,-2.43 9.33,14.39 -7.3,16.01 -4.46,12.17 2.03,4.05 -11.35,24.73 -4.66,4.05 -6.89,16.01 -14.19,9.53 -7.7,2.02 9.12,6.89 10.33,6.09 h -2.43 l -5.47,6.89 -12.36,2.02 -5.68,7.1 h -26.96 l 8.11,8.1 h 6.08 l 10.14,3.45 h 8.71 l 10.54,-8.11 h 8.31 l 9.12,5.88 13.38,5.88 13.58,20.47 10.13,8.11 2.43,5.87 -2.02,8.52 6.48,27.76 7.5,18.85 8.72,6.69 14.59,3.65 11.96,19.25 13.98,20.47 2.84,18.04 -3.85,16.83 5.27,4.25 z m -270.98,-33.24 -3.65,-9.32 -19.66,2.43 2.44,-8.92 -7.3,-5.07 -5.27,-8.92 -6.89,-3.85 -5.07,12.77 -15.2,8.92 -15.81,-6.69 -8.11,-9.73 -2.02,-9.73 17.43,-9.72 -9.93,-8.92 16.62,-3.85 7.9,-17.03 v -8.51 l 9.12,-3.04 10.34,-5.47 15.81,-2.64 8.71,2.03 7.91,3.65 7.29,-2.03 4.46,5.27 10.54,27.97 v 6.28 l -2.03,10.54 6.29,15.41 -3.04,11.55 -8.31,11.35 -7.1,4.05 z m 22.9,-107.22 -2.63,-11.55 3.04,-12.16 7.7,-3.04 2.03,17.83 -6.28,9.12 h -3.45 z" />
  </symbol>

  <symbol id="China" viewBox="0 0 1000 800">
    <path d="m 567.72,695.81 -6.46,-3.23 -3.76,-2.06 -1.18,-7.99 v -1.76 l 1.41,-1.53 2.47,-1.46 4.23,-3.88 2.87,0.59 0.59,-1.06 1.41,-2.47 h 1.41 l 3.41,1.41 1.88,-1.94 h 2.58 l 4.7,-1.05 3.52,4.29 -0.99,1.05 -2.59,2.23 -2.41,3.35 -1.7,4.58 0.82,1.82 -1.29,1.94 -1.7,0.59 -6.05,2.41 z m -97.62,-61.91 -3.99,2 -1.41,1.53 v 2.11 l 0.82,3.76 1.35,2.29 0.71,3.29 -0.65,2.17 -1.58,1.35 -4.53,-0.58 -1.88,-1.35 -1.05,-1.24 -0.88,-1.47 -0.65,-2.4 -3.7,2.58 -3.82,1 -1.47,-0.59 -2.17,-1.64 -2.06,-4.76 -1.7,-2.41 -2.82,0.59 h -2.99 l -1.35,-0.59 -0.65,-2.23 4.29,-10.1 v -1.76 l -3.06,-0.59 -3.23,0.59 -1.23,-2.06 -1.59,-11.33 -0.94,-0.83 h -2.81 l -4.53,0.59 -4.81,2.82 -1.88,0.59 -1.24,-0.59 v -1.7 l 1.3,-3.76 -0.94,-4.58 -0.59,-3 3.64,-5.52 1.12,-1.29 2.87,-1.76 3.59,-3.41 2.52,-4.76 2.12,-5.64 v -5.75 l -1.18,-10.93 -0.82,-0.88 h -3 l -1.7,-0.58 -1.23,-2.06 -1.47,-5.99 -2.35,-2.88 -2.94,-1.88 -1.64,0.59 -1.82,2.29 v 0.82 l -3.64,-0.58 -4.29,-1.18 -3.88,-0.59 -1.76,-0.58 -0.59,-0.59 0.77,-1.82 2.11,-3.06 -0.58,-2.52 -4.17,-4.82 -2.71,-2.64 -8.1,5.64 -2.23,0.59 -5.7,-2.12 -1.7,-1.12 -2.12,0.59 -3.17,2 -6.52,4.87 -4.87,1.71 -3.23,2.52 -6.58,7.34 -2.35,1.82 -4.23,1.41 h -4.58 l -1.12,0.65 -1.93,-4.11 -1.83,-1.35 h -2.23 l -9.75,-0.59 -2.82,-1.41 -1.82,-2 H 312 l -0.88,0.71 -2,1.58 -3.64,3.59 -7.34,10.28 -1.24,-4.41 0.59,-5.7 -0.82,-1.23 -1.35,-0.59 -2.76,0.71 -2.06,0.88 -3.82,-1.12 -1.99,1.88 -2,-0.76 -5.05,0.59 -1.88,-2.47 -3.7,-1.88 h -2.88 l -0.59,2.23 -1.64,0.59 -3.99,-2.53 v 2.47 l -1.41,0.65 -0.83,-3.12 -3.17,-3.29 -2.17,0.59 -5.52,-0.59 v -1.76 l 1.06,-2.7 h -1.94 l -1.94,1.65 -8.58,-6 0.59,-1.87 -1.06,-2.59 -1.7,-1.11 -4.17,0.76 -0.94,1.11 -3.82,-5.34 -2.7,-1.88 -0.88,0.88 -2.76,-1.47 -4.29,-4.05 -5.11,-1.76 -0.76,-4.17 -6.34,-1.35 -1.12,1.23 -1.58,-0.59 -0.83,3.53 -1.64,2.11 -1.76,-0.58 -1.41,-2.94 -5.05,-4.05 -0.89,0.58 -4.46,-1.7 0.71,-2.47 -6.35,-3.99 -2.17,0.82 -4.52,-5.81 -2.29,-1.71 -2.76,2.18 -1.18,-0.59 -0.59,-3 1.3,-1.46 -1.65,-2.53 0.65,-3.11 -3.41,-4.11 -0.94,-4.82 4.64,-1.41 v 2.53 l 2,1.88 2.17,-0.59 2.18,-2 3.4,-2.52 -2.17,-4.88 0.64,-2.88 -3.99,-0.7 v -1.29 l -0.59,-0.59 -4.23,-0.71 -1.7,-1.52 v -3.94 l -0.59,-4.17 1.06,-1.29 1.94,-1.59 -1.29,-1.82 -2.59,-2.87 -4.75,-0.83 -1.3,-3.64 -2.64,-7.46 v -3.7 l -2.94,1.12 -0.88,-0.94 -1.76,-0.76 -7.87,-0.77 -3.35,-3.17 -1.05,-0.64 -0.59,-1.47 h -1.41 l -3.05,1.41 -1.47,-2 -1.18,-1.59 -1.82,-0.58 1.88,-3.76 v -3.7 l -1.23,-1.76 -2.23,-2.41 h -3.65 l -1.7,0.94 v -3.35 l -3.29,-0.82 -1.7,-0.59 -1.65,1.53 -0.64,-0.83 -1.82,-0.99 -0.59,-0.65 h -1.41 v -2 l 3.41,0.59 1.11,-1.12 2.12,-0.99 0.59,-1.82 1.05,-1.36 -1.17,-1.23 0.88,-2.64 -1.47,-1.76 0.76,-3.23 v -0.88 h -0.88 v -1.83 -2.11 l -1.76,-3.76 -1.58,-1.11 h -4.12 l -1.29,-0.59 -1.29,1.23 -2.76,0.59 -1.88,-3 -0.59,-2.29 1.24,-1.7 v -7.81 -0.59 l 0.82,-5.64 0.76,-1.64 1.65,-1.41 8.34,-5.46 10.22,-5.64 h 2.11 l 0.59,0.59 1.05,4.4 2.06,0.59 3,-1.12 5.16,-1.06 1.59,-1.87 2.76,-6.05 2.7,-3.7 h 1.41 l 7.34,1.82 h 2.7 l 2.82,-0.83 3.82,-2.64 3.76,-5.52 2.35,-2.35 2.64,-1.17 7.87,-2.76 5.7,-1.71 1.94,-1.52 v -1.24 -1.52 l -0.82,-6.88 v -3.17 l 1.87,-3.23 4.17,-4.4 1.3,-2.65 -0.71,-3.81 -1.7,-3.64 -2.06,-5.11 v -11.16 l -2.82,-1.18 -2.17,0.59 -1.35,-1.53 0.59,-1.76 1.23,-2.53 2.35,-1.58 10.57,-2.12 6.34,-1.7 2.06,-0.59 2.94,1.53 6.69,2 2.29,-0.59 1.35,-1.23 0.94,-2.06 -0.76,-2.41 -3.64,-4.28 0.82,-3.53 1.7,-5.17 2.53,-6.75 3.05,-9.81 2.53,-4.4 6.46,2.17 4.23,1.23 3.46,1.24 8.28,0.64 4.23,-0.58 2.47,-0.89 2.58,-3.4 0.94,-3.35 -1.23,-6.17 -0.59,-6.63 2,-5.11 2.53,-2.47 7.04,-0.82 1.71,-0.59 1.82,-1.94 v -4.29 -2.46 l 1.64,-2.35 3.23,-1.35 3.23,-0.59 h 1.35 3.35 l 1.41,-0.7 0.59,1.29 0.76,3.64 1.41,5.05 2.23,3.88 7.64,6.57 4.93,3.7 3.58,0.59 4.29,1.47 3.76,1.23 2.06,1.3 3.34,5.4 6.29,12.51 2.41,5.7 -1.3,3.81 -1.41,6.41 -1.23,3.28 -2.17,2.88 v 1.12 l 0.64,3.64 1.35,1.88 4.29,2.64 6.23,1.47 h 8.87 l 5.87,0.59 3.93,0.7 5.88,1.88 3.7,2.23 9.69,6.64 4.93,2.58 4.35,0.77 0.64,4.46 9.23,17.56 2.76,3.53 2.64,2.05 h 11.63 l 7.28,1.65 4.76,0.88 h 6.87 l 16.8,-0.59 h 5.52 6.87 l 9.92,1 3.06,1.35 4.81,4.35 5.94,2.93 9.39,3.41 5.47,0.94 3.93,-0.59 3.58,0.59 1.47,2.35 2.53,1.58 h 2.88 l 3.99,-2.23 8.52,-4.23 1.76,-0.82 4.34,-2.17 4.82,-2.29 7.05,-2.76 h 7.87 l 8.92,-0.59 5.82,0.65 3.82,-0.59 11.45,-5.93 1.53,-1.35 6.57,-8.46 3.94,-3.17 7.46,-2.35 1.88,-2.12 0.76,-2.17 -1.11,-1.88 -3.53,-3.35 -2.29,-4.7 v -2.82 l 1.29,-3.34 3.17,-4.88 2.71,-1.94 1.82,-0.58 4.23,1.29 3.93,3.17 3.52,1.06 h 5.76 l 4.41,-0.59 4.34,-3.58 6.99,-7.64 h 1.35 2.59 l 3.64,0.59 5.28,-1.17 3.76,-2.06 2.06,-1.59 1.41,-1.82 1.82,-6.93 2.17,-2.87 2.76,-1.71 2.7,-0.59 2.88,1.12 2.06,-1.64 4.87,-2.35 3.17,-1.3 5.52,-1.87 h 5.05 l 2.53,0.82 h 6.34 l 2.7,1.05 2.47,-1.87 0.59,-1.83 v -2.34 l -3.53,-4.35 -5.16,-8.63 -4.7,-4.35 -3.17,-1.76 -5.47,-1.88 h -2.58 l -7.05,6.93 -1.7,-0.65 -2.53,-3.64 -1.88,-0.7 h -3.34 l -4.47,0.58 -5.46,3.47 -2,0.59 v 0 l -1.58,-7.35 2.23,-5.11 7.16,-17.56 4.06,-10.92 1.76,-2.82 v 0 l 2.7,1.53 6.58,5.22 h 2.05 l 2.59,-0.82 14.33,-6.87 4.58,-3.11 0.76,-2.12 -0.58,-2.82 -2.06,-3.23 -0.59,-1.35 0.59,-2.29 2.47,-3.99 2.46,-5.11 3.94,-7.28 3.52,-5.17 8.05,-5.82 1,-7.63 -0.65,-2.41 -2.7,-2.94 h -3.29 l -4.81,0.77 0.7,-2.41 2.17,-2.76 7.05,-7.69 2.82,-1.65 3.52,-1.29 10.93,-1.41 4.87,-1.23 7.11,-1.06 5.4,-0.59 6.76,2.17 6.11,4.7 3.99,1.88 8.16,-1.23 h 3.17 l 4.53,4.58 4.34,9.28 6.4,22.79 5.53,14.86 5.46,17.56 2.58,3.52 2.94,1.82 7.34,3.11 8.99,2.3 15.68,7.57 1.17,1.29 1.76,7.7 2.59,11.33 1.53,3.94 h 3.99 3.82 l 9.75,-0.59 3.58,-1.88 5.58,-2.76 7.99,-2.7 6.99,-1.82 5.28,-0.59 1.47,1.06 0.59,2.29 0.7,3.41 v 4.4 l -3.35,3.58 -3.87,3.41 -1.71,6.11 -1.64,7.69 -3.17,9.11 -3.7,9.1 -1.94,3.64 -3.23,5.81 -2.76,2.88 -3.23,-0.82 -3.99,-1.88 -4.06,-2 -2.29,-0.58 -9.81,8.16 -0.58,4.64 1.93,7.4 0.59,5.34 v 5 3.11 l -0.59,1.06 0.65,2.41 -0.94,2.64 -2.99,3.46 -7.35,3.7 -0.64,0.59 -3.41,-5.46 H 836 l -1.52,1.06 -2.24,2.87 -1.35,5.7 -5.63,4.23 -3.65,2.05 h -3.17 l -2.64,-0.58 -1.94,-1 -2.35,0.59 -1.58,1.93 v 2.71 l 2.99,6.05 v 0.88 l -3.11,1.23 -5.76,0.59 -2.99,-1.18 -2.88,-1.99 -1.59,-3.12 h -2.64 l -2.29,1.06 -4.05,8.05 -3.7,4.23 -6.11,4.22 -8.99,4.7 -3.11,2.53 -2.41,3.4 -2.23,4.06 -0.59,-0.71 -2.46,1.35 -7.17,1 -4.29,1.29 -13.21,7.05 -3.7,2.82 -3.35,3.52 -3.58,2.06 h -1.94 l 0.76,-1.94 5.06,-5.17 1.93,-2.7 -2.76,-0.82 -2.17,0.59 -0.88,-2.29 v -1.18 l 5.64,-5.99 1.58,-2.94 3.23,-3.17 0.94,-1.52 -0.58,-2.35 -4.29,-4.29 -4.29,-2.17 h -0.76 -3.7 -1 l -2.88,2.87 -6.75,9.17 -2.12,1.17 -3.76,0.71 -3.58,1.82 -2.17,1.52 -2.23,3.53 -0.83,3.11 -0.76,1.94 -1.47,1.94 -2.58,0.99 h -2.94 l -1.88,2.06 -1.82,0.88 -2.64,-4.29 h -2.12 l -2.05,0.94 -2.35,4.88 -1.76,5.23 0.58,2.58 1.47,2.76 3.23,2 4.76,1.99 7.11,-0.58 1.7,1.88 v 4.05 l -0.7,4.29 v 3.99 l 1.58,2.06 4.29,0.58 4.11,-1.17 4.46,-3.88 3,-3.64 3.23,-1.7 3.17,-1 1.7,0.59 5.23,4.64 3.23,1.46 5.99,-0.64 h 2.17 l 2.77,1.06 h 1.58 l -1.47,5.22 -0.58,4.05 -3.65,-1.46 -1.7,-0.59 -3.11,0.59 -9.87,4.05 -4.17,3.23 -0.59,5.4 -3.11,1.12 -0.82,-0.82 v -1.94 l -0.76,-0.65 -2.94,0.82 0.82,3.41 -0.88,2.7 -2.88,3.59 -8.22,8.04 -0.76,1.65 v 3.93 l 3.64,1.65 4.23,3.46 4.58,3.76 2.35,3.76 2.46,8.81 3.94,4.52 1.06,3.05 -0.83,4.76 1.06,1.29 4.05,2.06 2.35,4.11 3.35,1.76 1.59,1.82 0.58,2.18 v 1.05 l -4.64,2.53 0.59,0.59 2.47,2.11 1.88,5.4 v 2.06 l -0.83,1.29 -3.17,0.59 -3.81,1.41 -5.58,3.82 -5,1.41 -3.7,2.05 4.23,1.41 2.23,0.59 5.52,-2.94 2.88,-0.59 1,0.59 3.06,4.05 2.29,1.12 h 2.7 v 1.06 l -1.35,2.11 -2.24,1.53 -1.76,1.64 0.65,1.06 h 1.88 l 1.23,0.59 -1.11,2.17 -1.77,5.05 -1.11,4.35 v 2.41 l -1.29,2.99 -1.24,0.88 -2.05,-2.29 -0.88,0.94 -3.35,5.11 -2.35,4.11 -1.29,4.17 -0.71,1.94 -3.52,2.82 -1.47,2.88 -1.53,1.23 h -3.35 l -2.23,1.47 1.65,4.76 -1.53,3.34 0.59,3.88 -0.59,1.76 -1.23,1.71 -3.12,1.29 -0.94,1.88 -1.05,2.58 -1.71,4.11 -3.7,2.29 -2.4,3.23 -2.88,-0.94 -2.64,-0.58 -0.83,0.76 -0.82,1.29 0.65,5.35 -1.24,0.94 -4.52,4.17 -2.11,0.82 -3.7,1.11 -3.35,3 -3.35,1.35 -0.59,0.71 v 3.11 l -0.82,0.94 -3.35,0.59 -2.93,0.7 -2,2.82 -2.11,-0.82 -3.06,-1.06 -1.64,0.59 -1.82,2.05 -2.59,1.29 -3.76,0.65 v -2.99 l -3.05,0.58 -4.11,1.41 -1.88,1.24 h -1.7 l -2.35,-3.18 -0.94,-0.99 -1.18,1.82 0.59,1.05 -0.59,1.35 v 4.41 l -1.23,1.88 -2.47,0.76 -2.93,-1.17 -0.77,1.76 v 1.53 l -0.82,1 -3.64,0.58 -2.17,0.77 h -3.47 l -2.76,-1.3 -1.23,0.59 -2.59,3.06 -1.35,0.58 -4.58,-0.58 -4.4,1.46 -2.35,2.06 h -2.71 l -1.58,-0.59 v 0.59 l -0.59,2.23 -1.7,2.47 v 0.76 l 2.82,4 1.58,0.76 v 1.23 l -2.11,1.71 -4.47,0.99 -2.87,-4.52 -1.41,-4.34 v -2.53 l 2.35,-4.88 V 649 l -3.41,-1.65 -1.35,0.59 -1.23,1.88 -2.65,0.59 -3.99,-1.35 -3.35,-4.64 -1.17,0.58 v 1.06 l -0.94,2.53 -1.59,0.82 -1.94,-0.59 -2.82,0.59 h -0.58 l -1.12,-0.94 -5.4,-0.65 -3.64,-1.05 -5.52,-3.94 -1.65,-2.29 -0.59,-3.35 2.76,-4.75 -0.58,-2.41 -1.35,-1.35 -4.59,0.58 -3.87,-0.58 -4.58,-1.53 -3.64,-3.64 -1.77,0.64 -3.05,2.06 -4.11,3.58 -2,1 -4.76,0.76 -9.39,0.59 -1.94,0.77 -3.47,2.64 -1.88,-0.65 -3.52,-2.46 h -2 l -3.05,0.82 -2.82,1.47 z" />
  </symbol>

  <symbol id="Australia" viewBox="0 0 1000 800">
    <path d="m 714.62,702.55 -3.45,-2.3 -8.47,-4.67 -3.88,-3.66 -3.66,-7.04 -3.45,-5.45 -1.58,-4.03 1.94,-0.72 1.22,0.94 3.01,1.72 0.94,-1.43 -1.51,-3.74 -5.1,-6.82 -4.45,-6.9 -1.08,-2.44 -2.66,-9.19 v -6.39 l 1.3,-0.72 7.18,3.02 10.63,3.37 7.83,3.52 h 5.74 l 3.38,-1.36 2.73,-1.08 2.65,-0.72 h 4.96 l 2.15,-2.8 5.17,-2.37 3.45,3.66 v 0.94 l 0.94,7.68 v 6.61 l -5.39,14.58 -0.93,7.39 -1.73,3.16 -6.82,2.52 -3.95,3.8 -3.52,6.83 -1.36,2.73 -2.02,0.71 z m -69.95,-603.287 4.88,2.877 1.65,3.73 0.72,4.74 0.86,5.03 1.8,1.43 h 3.09 l 0.71,1.8 -3.23,6.75 5.1,2.51 1.29,2.09 1.08,4.38 0.72,9.55 1,4.67 3.31,8.55 2.08,2.01 h 3.02 l 2.37,-2.3 2.8,-1.37 2.3,4.96 2.58,0.93 4.1,3.02 2.73,1.15 1.07,1.15 v 3.09 l 0.72,7.11 2.01,5.81 v 7.98 l 2.01,1.79 6.68,9.98 2.01,5.32 v 5.89 l -1.51,6.61 2.95,4.95 1.94,6.32 1.51,2.66 10.05,6.1 2.01,1.22 5.39,0.87 2.87,4.95 6.11,4.1 3.44,1.29 8.19,0.72 0.86,1.5 -1.07,1.87 -1.94,4.31 2.22,3.3 6.32,3.67 1.58,4.38 3.38,10.34 1.51,5.82 0.79,3.09 1.86,2.44 5.53,2.73 v -1.01 l -1,-6.03 6.53,3.95 4.1,1.15 1.29,1 1.01,2.3 0.79,13.72 6.32,6.03 4.16,2.52 4.31,1.22 2.08,2.37 1.8,4.52 1.65,3.38 3.88,1.36 1.29,2.3 v 2.15 l 1.44,4.31 0.72,0.87 3.66,1 1.15,0.93 1.15,2.81 2.66,10.63 v 7.03 6.9 l -0.94,3.37 -1.29,2.59 5.6,10.34 1.58,3.88 1.37,6.82 v 6.18 l -2.09,5.82 -2.58,13.79 -4.17,14.65 0.94,6.6 -0.72,6.76 -2.23,6.6 -4.74,8.26 -1.44,5.68 -4.3,7.03 -3.24,1.58 -3.37,0.87 -3.02,4.02 -3.37,5.82 -2.37,13.28 -3.45,5.53 -2.44,4.31 v 5.75 l -1.51,4.74 -2.37,2.73 -4.38,3.01 -1.94,2.88 -2.16,9.12 -1.22,9.33 -0.72,8.41 v 6.03 l -2.08,5.82 -2.3,3.23 -3.3,2.73 -5.46,0.93 -8.33,0.79 h -5.89 l -3.81,1.44 -3.73,2.73 -10.99,8.62 -3.16,1.22 -1.58,2.58 -2.51,0.72 -3.74,0.72 h -2.08 l 2.08,3.45 1.51,2.44 -9.41,-6.11 -6.39,-3.3 v -4.31 l -0.72,-1.44 -4.02,-4.31 -4.52,-3.3 h -3.02 l -3.52,1.58 -2.44,2.23 5.39,4.23 -6.97,2.23 -6.68,3.95 -6.82,4.09 h -1.66 l -4.3,-2.08 -6.4,-4.09 -4.81,-2.08 -7.83,-2.81 -3.66,-0.71 -1.72,1.43 v 1.08 l -5.17,-1.58 -5.39,-3.23 -3.81,-2.73 -6.39,-7.47 -3.81,-3.09 -3.01,-7.97 0.72,-9.34 -0.72,-3.66 -1.3,-4.45 -4.81,-6.54 -1,-4.67 v -3.8 h -3.81 l -5.67,3.52 -4.31,1 -2.44,0.72 -1.3,-0.72 -1.15,-1.51 3.74,-4.02 1.65,-5.03 0.72,-7.25 -1.8,-2.8 -3.87,-5.24 -1.8,-3.02 -3.45,6.39 -3.23,12.57 -1.36,1.01 h -5.75 l -1.44,1.36 h -1.36 -1.87 l 1.44,-3.52 0.72,-3.52 0.71,-0.86 h 4.6 l 1.72,-1.22 0.94,-2.23 -0.79,-8.83 3.3,-7.25 2.3,-3.95 0.72,-3.38 v -3.59 l 1.15,-1.08 h 1.72 l 1.58,-3.02 v -1.93 l -2.37,-4.24 -2.44,-4.24 -0.72,6.03 -2.08,2.23 -3.74,2.51 -2.22,4.03 -0.72,1.36 -1.37,4.02 -2.01,2.88 -5.38,2.08 -5.25,4.16 -4.74,4.96 -2.58,6.1 -3.74,7.04 -2.94,-2.94 -2.73,-11.64 -1.87,-5.02 -1.36,-2.88 -4.96,-6.82 -2.15,-6.32 -1.22,-1.87 -5.1,0.72 -1.73,-0.86 -0.93,-2.08 -0.72,-2.3 2.44,-2.88 v -2.58 l -2.51,-3.38 -3.88,-4.16 -1.94,-0.86 -5.96,1.36 -3.52,-0.72 -6.82,-4.67 h -1.94 l -3.16,1.44 h -3.16 l -3.02,-1.58 -4.74,-4.45 -6.67,-3.67 h -1.51 l -5.25,1.8 -9.19,0.79 h -4.81 l -12.71,0.72 -4.38,1.08 -4.74,1.79 -7.11,3.74 -7.04,2.22 -7.47,2.16 -10.77,0.72 h -5.75 l -2.73,0.71 -6.68,2.45 -7.18,4.02 -5.53,3.37 -3.88,1.22 -3.09,0.72 -2.58,1.73 -4.46,5.96 -5.6,8.83 -4.24,2.44 h -5.45 -3.95 l -6.68,1.3 -2.88,1.58 -4.81,-3.45 -2.08,-0.72 h -5.32 l -11.27,1.51 -6.75,1.36 -3.31,-0.72 -4.81,0.72 -2.87,2.01 -4.24,6.9 -2.44,1.08 -6.89,-1.08 -1.15,0.72 -4.1,6.17 -3.37,3.31 -6.61,2.37 -4.24,0.71 -10.91,-0.71 -4.53,-0.72 -4.95,-1.73 -4.6,-3.23 -5.6,-5.89 -5.32,-3.08 -2.65,-0.72 -1.15,-0.72 -1.37,-10.7 0.72,-2.23 3.52,1.01 3.23,-0.79 2.37,-3.67 1.44,-4.02 1.94,-11.63 -0.72,-10.42 -1.08,-5.24 -1.87,-5.03 -8.04,-16.01 -1.51,-5.32 -1,-6.96 v -8.19 l -1.15,-5.75 -3.31,-8.83 -4.81,-7.76 -4.31,-6.03 -1.58,-2.08 0.94,-7.33 -1.51,-4.38 -5.32,-8.98 -6.96,-8.18 -2.01,-4.67 0.93,-1.87 1.36,1.44 1.08,3.59 1.29,1.29 1.73,2.8 2.37,1.51 h 2.51 l -2.44,-9.19 -3.16,-3.16 -1.65,-2.66 0.72,-2.37 5.38,6.68 3.59,7.9 3.38,0.72 -0.72,-4.46 h 2.08 v -4.59 l -2.01,-3.81 -7.47,-10.92 -2.51,-5.45 -0.86,-4.6 v -5.82 l 2.58,-4.67 2.3,-4.16 1.51,-5.17 -0.72,-8.12 -1.79,-4.95 v -2.88 l 3.16,-5.38 0.79,-2.52 0.71,-1.22 1.94,5.03 v 3.3 l 0.79,1.44 h 2.52 l 1.22,-0.86 1.36,-4.38 1.01,-3.74 5.53,-3.66 8.76,-4.81 3.45,-2.52 4.88,-4.52 4.24,-3.59 4.52,-2.52 5.68,-0.86 h 5.02 5.03 l 3.09,-0.72 2.59,-1.43 3.37,-3.45 3.59,-1.01 6.68,-0.71 2.01,-1.08 2.08,-4.24 1.15,-0.72 h 3.16 l 6.32,1.73 4.53,-0.72 6.53,-2.3 7.83,-3.59 2.59,-1.65 5.1,-5.03 3.09,-4.45 2.08,-4.74 0.93,-2.23 3.02,-2.8 6.97,-4.96 0.71,-1.29 -0.71,-3.09 -1.8,-6.1 v -3.74 l 7.61,-8.4 2.8,-5.17 2.09,1.22 2.51,3.3 4.45,10.2 1.87,1.94 1.22,-4.38 v -3.52 l 3.09,1.8 2.01,0.72 1.36,-4.53 -0.71,-1.08 -4.1,-1.79 -1.22,-1.8 v -4.23 l 0.72,-0.87 h 6.46 l 4.74,1.87 h 4.6 2.44 l 2.09,0.72 -5.03,-3.38 -3.16,-1.07 0.93,-4.03 -0.72,-2.22 1.01,-3.81 3.02,-2.66 1.22,-0.71 5.24,2.94 h 1.44 l -0.79,-3.37 0.79,-3.6 1.07,-2.73 v -3.87 l 2.52,-1.3 2.94,-0.79 h 5.82 l 3.8,-8.11 2.66,-2.23 2.52,1.29 1.94,3.38 1.93,-4.09 1.58,-1.73 1.44,-3.52 4.96,4.6 3.73,0.72 2.08,1.58 2.37,3.95 4.6,4.45 0.86,5.24 -0.72,4.46 1.3,1.43 1.79,-2.08 3.38,-5.1 1.07,-0.93 8.34,0.72 3.44,1.14 4.6,3.74 2.37,1 1.15,-3.59 2.15,-2.15 v -1.8 l -1.94,-2.44 -4.3,-2.94 -0.72,-1.37 v -1.79 l 1,-0.72 4.38,-3.95 v -3.38 l 1.37,-1.58 3.73,-2.08 1.94,-1.79 1.08,-2.02 -0.72,-1.36 v -2.16 l 3.74,-6.39 0.86,-0.72 h 2.22 2.88 l 1.79,-1.22 -1.43,-3.01 2.65,-2.95 2.52,-0.72 5.67,2.66 4.45,-0.72 9.27,-0.71 3.73,-0.94 1.65,-1.29 v -0.72 l -0.71,-1.51 -1.44,-5.38 -1.8,-2.09 -3.37,-1.94 -2.66,0.72 -1.79,-1.07 v -1.51 l 2.65,-1.08 h 2.8 l 4.46,3.81 1.86,0.71 2.45,-0.71 2.58,2.29 4.89,3.38 2.58,1.15 9.34,2.15 4.24,0.72 3.01,-1.08 h 2.66 l 2.8,4.53 3.02,0.79 h 1.07 l 4.03,-3.23 h 3.23 l 4.74,2.8 2.37,3.52 3.3,-1.01 0.86,-5.89 1.3,-0.72 3.3,3.38 2.44,0.72 1.08,1.15 -3.16,3.01 -0.86,3.16 -1.3,1.58 v 3.24 l -0.86,1.86 h -3.66 l -3.73,1.66 -2.81,2.51 v 4.09 l 2.23,2.59 -1.36,5.17 -2.73,4.31 -4.02,3.59 -1.15,3.52 0.71,1.29 3.31,3.23 7.47,4.67 5.89,5.03 3.59,4.52 1.79,0.72 2.52,-0.79 h 1.94 l 5.6,2.66 5.31,3.52 3.16,3.37 4.89,4.03 2.37,0.93 h 3.23 l 5.6,1.36 1.8,1.37 1.58,4.67 1.22,1.29 3.66,2.37 5.46,3.16 3.88,1.15 3.01,-0.72 2.95,-1.29 4.38,-1.51 1.51,-1.22 5.24,-10.13 2.94,-8.47 1.37,-9.84 1.87,-5.39 3.08,-5.1 -0.93,-3.16 -2.94,-4.59 v -2.3 l 1.72,-4.74 1.36,-3.59 -1.22,-2.09 -1.29,-2.94 0.72,-5.1 0.72,-7.4 1.65,-2.22 2.37,-1.15 1.15,-2.3 -3.88,-3.81 v -1.51 l 4.16,-6.96 2.23,-6.83 0.72,-6.1 1.36,-1.796 2.02,-2.155 z" />
  </symbol>

  <symbol id="New Zealand" viewBox="0 0 1000 800">
    <path d="m 612.41,215.6 13.35,4.51 v -5.23 l -4.51,-11.9 1.8,-6.32 h 4.33 l 7.04,3.97 6.67,16.96 5.05,22 8.66,3.97 31.57,15.88 9.2,2.52 6.67,-1.8 12.63,-11.19 16.06,-7.75 h 7.21 l 5.95,3.97 1.81,10.28 v 4.69 l -7.22,28.5 -5.05,1.8 -13.71,1.81 v 15.87 l -2.16,3.61 H 710 696.47 l -7.76,4.69 -4.87,6.49 v 9.02 l 4.51,12.45 v 5.05 l -2.7,4.69 -11.73,12.09 -16.23,26.88 -15.34,25.25 -13.52,14.25 -12.27,7.58 -6.13,-4.15 -8.48,-7.58 -4.33,-7.93 1.8,-7.4 5.05,-9.38 5.59,-16.06 7.22,-11.9 v -8.12 l -4.87,-2.88 -13.71,-13.89 -7.76,-4.33 -10.64,-4.33 -17.68,-10.65 -5.59,-5.95 -1.98,-3.97 1.8,-3.06 7.58,-3.61 25.07,-15.88 3.79,-11.9 -1.81,-16.06 1.81,-7.21 7.21,-10.1 v -8.84 l -8.65,-19.13 1.8,-12.98 -2.89,-7.04 -8.66,-14.79 -10.28,-15.33 1.81,-3.61 -2.71,-6.86 -5.23,-7.93 -6.13,-4.15 -5.24,-3.61 2.17,5.23 9.02,11.55 v 3.06 h -3.07 l -3.79,-6.31 -9.56,-14.07 -11.18,-17.14 -9.38,-12.45 v -2.7 l -4.87,-5.59 v -3.25 -3.07 -4.15 l -3.61,-8.655 -6.85,-9.2 -6.32,-5.592 2.89,-1.804 3.79,1.985 h 6.49 l 2.35,-2.165 1.8,6.133 -2.53,4.149 3.25,6.675 3.25,4.69 3.06,2.525 3.97,3.609 v -3.067 h 4.87 l 9.38,5.587 7.58,2.53 5.05,1.8 2.35,5.78 v 3.06 h 3.24 l 2.71,-4.15 h 3.25 v 3.61 l 4.14,7.76 4.51,4.15 4.15,6.13 h -3.24 l -1.81,3.79 1.81,3.61 h -4.33 l -3.25,-1.81 2.53,2.71 4.51,4.15 4.32,5.23 6.32,6.31 1.8,5.23 v 4.69 l -4.69,-1.8 1.81,3.61 4.33,7.94 4.69,4.32 h -5.24 -4.14 l -3.61,-1.8 v 3.07 l 5.59,3.24 5.77,3.61 -1.8,4.87 3.79,1.81 h 4.69 4.15 l 3.96,3.06 -1.98,1.81 v 3.24 3.07 l 2.53,1.8 z m -130.42,349.78 -1.81,3.97 -10.1,3.24 -5.41,7.22 -5.95,2.71 -4.33,6.13 -12.63,-6.13 -2.89,2.16 2.71,5.41 7.76,10.46 -2.53,4.51 v 6.5 l -1.8,11 -3.97,-1.8 -17.68,-2.53 7.58,5.78 8.11,6.31 -5.05,12.63 -7.75,23.09 -3.79,14.07 -7.58,8.29 -12.08,9.2 -3.07,6.32 -4.69,3.97 -10.64,5.95 -10.65,10.82 h -7.21 l -20.93,-6.85 -11.36,3.06 -10.46,-11.72 -14.8,-4.15 -6.67,-1.8 -2.89,-7.94 -8.48,-2.53 -4.32,3.61 -1.81,4.51 -14.25,2.35 -3.79,-4.33 -9.38,-2.53 -2.52,-7.39 7.75,-2.35 -3.97,-5.59 5.96,-3.07 h 5.77 l -8.12,-12.44 14.79,6.85 -8.47,-14.97 2.16,-3.61 17.14,3.97 1.8,-3.25 -2.7,-4.51 -3.61,-5.59 -1.81,-7.4 5.24,-7.75 10.28,-6.32 5.95,-9.56 10.1,-9.38 1.81,-7.75 18.04,-14.62 20.02,-6.85 12.81,-8.3 9.92,-9.02 6.85,-2.52 12.27,-14.44 1.8,-6.67 8.66,-7.58 H 412 l 14.25,-8.11 12.08,-9.92 2.17,-5.42 v -4.15 l 4.69,-3.6 8.12,-7.4 -1.99,-12.27 1.81,-5.23 3.06,-10.64 5.41,1.8 1.81,-3.6 10.46,-6.32 7.94,-6.67 2.52,-6.86 2.35,-28.5 9.38,-15.51 6.67,1.8 6.5,3.97 v 6.13 l 5.95,1.81 3.43,4.51 4.15,19.12 5.77,5.95 17.5,-15.51 h 7.75 l 6.68,2.7 3.97,12.09 -3.61,9.56 5.41,10.46 1.8,6.5 -11.18,16.23 -4.69,9.74 -8.66,8.84 -15.51,18.4 -10.47,8.84 -5.41,3.25 -4.33,6.31 -7.03,3.97 -4.87,6.49 7.57,10.11 7.76,1.8 7.58,7.22 -5.05,2.7 -8.66,1.81 -9.2,-7.4 -8.84,3.25 -6.32,3.97 z" />
  </symbol>

  <symbol id="Peru" viewBox="0 0 1000 800">
    <path d="m 688,452.02 17.25,29.2 14.44,26.25 1.56,3.73 -6.84,11.81 -2.33,8.38 -2.17,13.52 1.55,8.39 3.73,14.44 -2.49,5.44 -3.41,5.44 -8.24,9.47 -1.55,7.3 5.44,13.52 -3.42,6.06 -2.33,5.43 v 7.77 l 9.32,18.95 v 8.39 l -4.51,7.15 -11.18,9.94 -1.86,3.73 v 7.76 l 2.02,4.82 v 2.33 l -9.17,3.11 -2.33,3.26 -3.57,15.22 -4.04,4.97 -13.21,4.51 -3.1,-8.55 -4.51,-5.12 -22.21,-10.1 -4.82,-3.88 -3.72,-11.03 -4.82,-6.22 -8.7,-3.72 -7.92,-4.51 -7.61,-4.19 -9.48,-4.97 -13.67,-7.46 -10.41,-6.06 -13.51,-6.06 -13.05,-5.43 -19.73,-13.67 -21.12,-16 -19.27,-17.71 -9.16,-11.34 -6.53,-10.88 v -6.99 -14.44 l -4.19,-9.79 -12.27,-16.62 -21.59,-44.27 -4.35,-4.2 -7.3,-3.26 -1.56,-1.55 1.56,-8.55 v -6.21 l -2.33,-6.37 -18.8,-34.64 -15.53,-31.07 -10.72,-19.88 -21.28,-30.14 -4.2,-5.59 -9.32,-15.22 -7.14,-6.68 -11.65,-6.68 -14.3,-5.75 -9.47,-5.75 1.86,-2.64 2.8,-1.86 h 9.47 l 2.33,-6.37 -1.86,-4.35 -9.32,-13.67 -5.44,-6.83 -4.04,-11.34 v -3.73 l 3.89,-8.08 9.01,-9.79 15.84,-13.67 7.3,-3.1 4.97,-3.27 v 8.86 7.61 l -3.72,5.44 1.55,7.61 1.55,3.11 6.99,1.7 h 12.74 l 4.82,3.89 2.95,7.45 6.21,7.77 6.21,1.55 3.73,-1.55 4.2,-4.81 15.38,-39.15 4.35,-7.92 9.16,-10.25 12.58,-7.77 14.14,-5.59 16,-4.66 5.12,-1.56 15.69,-11.8 11.03,-11.19 8.24,-12.11 8.54,-17.87 5.44,-6.06 1.55,-3.88 -4.97,-12.272 -6.06,-11.961 14.45,1.709 13.98,6.524 8.08,6.835 3.1,4.971 3.27,9.634 8.23,5.74 15.38,10.41 3.88,11.81 1.55,4.5 5.75,2.18 h 7.46 l 2.64,4.5 v 6.22 l 1.55,4.35 8.86,2.33 h 16.15 7.77 l 5.28,-2.49 6.99,-6.68 8.23,6.68 6.06,2.8 11.03,-6.84 7.92,3.11 20.35,13.2 1.87,1.56 v 3.1 l -18.02,30.45 h 6.99 l 2.48,-1.55 3.73,2.01 8.86,10.88 2.48,2.17 2.18,5.13 -5.44,2.95 -12.27,-3.73 -7.61,-1.55 -5.13,1.55 -9.32,6.84 -5.75,1.71 -10.41,-1.56 -29.51,12.12 -10.87,6.83 -5.91,2.65 -9.32,22.21 -4.97,7.92 v 2.49 l 4.35,13.51 v 1.71 l -9.79,7.77 -9.63,5.12 -5.43,5.44 -3.73,9.79 1.55,8.85 9.63,14.91 20.82,34.18 1.71,2.02 -3.89,7.77 -3.26,4.97 16.93,1.86 h 6.37 l 4.97,2.95 3.73,4.97 1.55,10.57 h 28.74 l 11.81,-7.93 10.1,-7.61 5.12,-1.86 -1.55,23.92 -1.56,18.64 1.71,5.59 4.97,5.28 4.51,1.56 5.44,-1.56 12.27,-4.19 h 6.52 z" />
  </symbol>

  <symbol id="Bolivia" viewBox="0 0 1000 800">
    <path d="m 252.7,163.94 17.47,2.42 21.01,5.95 h 6.51 l 17.66,-15.62 h 6.32 8.92 l 7.62,-4.65 27.52,-21 16.17,-9.3 6.69,-2.97 17.48,-1.86 h 23.79 l 1.86,14.13 -1.86,11.71 -1.86,11.71 v 15.62 l 2.61,12.08 6.32,11.15 15.06,17.66 20.63,18.04 5.76,1.86 h 14.69 6.69 l 12.64,4.83 12.83,5.76 13.94,11.53 5.58,1.86 h 16.36 1.86 l 7.06,14.87 7.44,5.95 4.09,1.86 21.38,-1.86 11.89,2.41 10.04,3.16 7.44,4.65 1.86,3.16 v 10.78 l 3.72,19.9 v 13.57 l 2.6,39.22 4.65,18.41 2.78,2.04 h 18.04 9.29 30.12 13.01 v 5.76 l -4.83,16.18 1.86,10.96 7.99,8 13.57,7.06 5.95,9.3 5.76,15.24 v 9.67 l -3.34,23.05 -4.47,16.36 -7.06,15.24 -7.99,13.02 -1.86,-1.86 -36.25,-19.52 -6.51,-1.86 h -17.29 -15.8 l -2.42,2.6 -19.89,4.09 -20.63,3.16 -14.69,3.9 -6.13,1.86 -6.14,7.63 -13.01,21.93 -5.21,6.69 -2.41,10.23 v 12.64 l -7.25,23.61 -7.44,22.12 -2.79,6.69 -10.97,-2.23 -24.72,-1.86 h -12.83 l -19.15,35.88 -7.8,-21.75 -6.32,-6.32 -6.88,-3.9 -10.04,-1.86 -9.67,1.86 h -16.91 l -11.34,-3.91 -3.72,-3.34 -5.95,-3.72 -5.39,5.58 -37.74,42.01 h -19.52 l -5.02,-3.72 -7.44,-43.13 -5.2,-19.52 -3.9,-11.34 -14.32,-22.12 -4.65,-13.57 v -6.88 l 8,-30.86 v -5.57 l -14.32,-14.69 -4.64,-10.22 -3.54,-23.8 -5.76,-12.83 -10.22,-14.5 -2.79,-5.02 v -2.78 l -2.42,-5.77 v -9.29 l 2.23,-4.46 13.39,-11.9 5.39,-8.55 V 392.6 l -11.16,-22.68 v -9.3 l 2.79,-6.5 3.91,-7.25 -6.32,-16.18 1.85,-8.73 9.86,-11.34 4.09,-6.51 2.97,-6.51 -4.46,-17.29 -1.86,-10.03 2.6,-16.18 2.79,-10.04 8.18,-14.12 -1.86,-4.47 -17.29,-31.41 -20.63,-34.95 z" />
  </symbol>

  <symbol id="Ukraine" viewBox="0 0 1000 800">
    <path d="m 230.3,231.48 v -1.62 -3.4 h 5.99 4.21 l 1.94,2.91 5.99,-5.34 5.99,-4.53 v -4.37 l 3.4,-4.86 h 7.77 l 7.93,1.62 5.67,-1.62 5.83,-1.62 5.82,1.62 h 7.77 l 7.61,-1.94 8.42,2.42 h 4.37 l 3.24,4.38 h 8.58 l 1.62,1.61 9.39,1.62 8.41,2.92 4.05,-1.95 4.53,1.62 v 5.99 h 3.08 v 3.89 l 8.74,-2.92 3.08,1.62 3.88,1.62 -1.62,5.83 1.62,1.62 2.59,-2.43 v -5.34 h 1.94 l 4.21,2.91 5.67,-1.62 2.1,-2.91 3.73,2.43 2.1,4.85 3.56,-2.91 h 3.4 l 2.11,1.94 1.61,4.86 h 2.76 l 2.1,-3.89 4.86,-3.88 h 2.75 l 2.1,-1.94 2.11,-1.62 2.75,3.4 1.78,3.4 v 5.34 l 3.08,1.62 5.18,-1.62 2.91,-2.43 3.72,-1.94 2.43,3.4 h 4.86 l 3.88,-1.95 3.56,-1.61 3.73,1.61 3.07,1.95 1.78,1.62 2.43,5.34 2.43,1.62 h 4.21 l 2.1,-5.35 -1.61,-3.88 -3.89,-5.34 1.62,-5.34 4.21,-5.99 3.07,-6.8 5.02,-4.86 1.94,-2.91 1.62,-3.56 5.51,-1.95 3.07,1.62 3.24,1.62 1.78,-3.4 8.58,-1.62 h 8.42 l 5.83,2.27 h 7.6 l 5.02,-4.21 2.92,-7.61 2.1,-7.12 8.74,6.47 h 8.74 l 10.85,-5.99 11.17,2.92 8.42,-3.56 3.24,7.12 5.01,3.56 4.05,8.9 2.1,5.35 4.05,4.04 5.02,4.05 v 7.12 h -5.02 l -5.02,3.56 2.11,7.61 1.78,9.23 4.37,7.61 h 10.52 l 2.59,2.91 8.26,-1.78 h 6.15 v 8.1 h 6.47 v 9.06 l 3.73,6.96 1.62,6.31 -1.62,4.54 1.62,5.66 2.91,2.43 4.69,7.29 4.38,-4.54 7.6,-1.62 4.37,1.62 7.61,7.45 3.24,-1.78 h 2.91 l 2.92,3.88 6.8,-2.75 5.02,-2.91 h 4.37 l 8.74,-3.4 5.83,-1.62 1.78,3.89 4.37,4.53 v 3.4 l 3.23,4.53 v 3.4 l 6.64,1.62 2.75,4.53 3.73,2.75 4.69,-3.4 v -3.88 l 3.72,-1.62 4.7,6.64 6.8,1.78 7.61,2.75 4.37,2.91 5.82,-1.78 3.24,4.53 4.7,2.27 h 7.61 l 1.94,5.67 5.66,3.88 h 4.37 l 2.27,-1.62 3.24,-2.26 2.43,2.26 -1.62,2.76 v 4.53 l 1.78,2.26 1.62,4.37 v 5.67 l -3.24,2.11 -2.59,1.78 -5.83,4.85 -5.02,1.62 3.56,6.15 4.38,2.11 4.69,1.62 -2.1,3.88 h -5.02 -4.05 v 4.37 5.51 l 2.59,1.61 2.91,1.62 v 3.4 l 1.62,4.37 1.62,4.86 1.62,1.62 -2.43,11.98 -2.59,6.96 v 3.88 l -5.5,3.24 -12.95,-3.72 -11.98,1.62 h -4.37 v 4.37 l -3.73,4.37 -6.15,3.07 h -5.82 l -3.57,2.11 -1.61,12.3 v 5.34 2.76 2.91 l -12.63,2.59 -15.87,1.62 -8.25,9.71 -11.82,4.53 -18.45,1.78 -18.13,5.83 -8.1,7.45 -7.44,1.62 -7.45,-7.45 -5.99,14.57 -5.02,4.37 -7.77,1.62 -6.96,-1.62 h -15.54 l -8.26,3.72 10.53,6.8 31.73,23.31 v 4.05 l -1.62,4.37 2.59,5.67 9.06,1.62 8.42,-3.08 10.85,-3.4 h 17.15 l 7.13,2.59 -3.89,5.99 -1.78,5.67 -3.56,3.4 -9.39,2.59 h -5.02 l -9.71,-3.57 -7.61,1.62 -11.49,11.33 -16.35,1.62 -8.74,4.21 -8.58,11.17 -4.37,2.27 -12.63,-1.62 -9.55,-3.89 5.83,-16.99 -1.62,-9.55 -4.37,-6.64 -13.76,-6.64 h -3.24 -10.2 l -2.43,1.62 -2.59,-4.37 14.41,-11.66 10.36,-6.15 12.63,-4.37 3.56,-2.59 -4.05,-10.84 -6.96,-1.62 -12.95,1.62 -16.51,1.62 -11.33,-2.43 -3.24,-2.27 -6.8,-10.2 9.55,-9.55 -8.58,-14.24 -6.15,8.58 h -8.74 l -16.19,3.4 -9.23,3.07 -11.33,17 -16.19,20.4 -12.3,4.69 -3.56,1.62 -4.69,11.65 1.61,3.73 2.92,2.1 -11.5,-2.91 -10.68,5.99 h -7.45 v 4.37 l -10.03,-1.62 -6.48,-3.89 -1.78,-5.66 h -2.59 l 1.62,-1.78 h 1.62 2.1 1.78 3.08 l 1.62,-2.59 v -2.11 l -1.62,-2.59 v -2.75 l 2.1,-1.62 1.62,-1.62 h 1.62 1.62 l 1.62,-1.62 1.62,-2.1 v -2.91 -2.59 h 2.26 l 4.7,-1.62 1.62,-1.78 v -2.11 l -1.62,-2.1 1.94,-2.59 v -1.62 -2.11 l -1.78,-2.75 1.62,-2.26 -1.62,-3.57 -1.62,-2.42 3.24,-3.56 h 3.88 l 1.95,-2.11 h 1.94 v 2.11 5.01 h 1.62 1.78 v -2.1 -1.62 l 1.62,1.62 1.62,1.62 v -1.78 l 1.62,-1.62 h 2.26 v 1.78 l 1.62,1.62 H 449 l 2.1,3.88 1.62,-1.78 1.62,-1.78 V 518 h 1.62 2.91 v 4.37 h 2.92 v -1.62 -1.61 h 2.26 3.73 v 0 l 1.62,-1.78 h -1.95 l -2.75,-2.92 -1.62,-1.62 -1.62,-1.62 v -1.61 l 1.62,-1.62 v -2.59 -2.43 -2.92 l -1.62,-3.4 -1.61,-1.61 -2.92,-1.78 h -1.62 l -2.59,-2.92 -2.43,-1.62 h -2.42 l 1.62,-3.56 v -2.1 -1.62 l -1.95,1.62 -1.62,-2.76 1.95,-1.61 v -4.37 l 1.62,-1.95 v -2.26 -2.27 h -1.95 l -1.62,1.62 -1.61,1.62 -1.95,-2.11 -1.62,-2.42 -3.07,-2.43 h -2.27 l -1.62,-3.4 -1.62,-3.24 2.92,-3.4 v -4.53 -2.75 l 1.62,-1.62 -2.11,-1.62 2.59,-3.73 h -1.78 l -1.62,-1.61 -1.62,-3.08 h -2.26 l -1.62,2.59 h -2.11 -3.39 l -2.11,-4.53 -1.62,-4.7 -6.8,-1.78 h -4.37 l -1.62,1.62 -1.62,2.59 -1.61,-1.62 v -1.78 h -1.62 l -1.62,1.62 v -1.62 l 1.62,-2.43 v -1.61 h -1.78 l -2.92,1.61 h -1.94 -1.62 l -1.62,-1.78 -1.62,-1.62 -1.62,-1.61 h -2.42 l -2.27,-1.62 -2.27,-3.08 -3.4,-2.1 v 0 h -2.1 v 0 l -1.78,-1.62 h -1.62 -2.27 l -2.91,1.62 h -2.75 l -1.62,1.62 -1.94,2.91 h -3.4 l -4.21,-1.62 -2.11,1.62 -5.01,-2.75 -1.62,2.59 v 2.75 h -2.11 l -1.62,-1.62 -2.1,2.75 -1.62,1.62 -10.2,1.94 -2.43,7.61 -4.53,4.37 -32.37,4.54 -3.08,5.18 -3.89,2.91 -5.5,1.62 -3.08,-5.51 h -5.18 v -5.66 l -5.82,1.62 -18.13,-1.62 -15.54,-4.7 -3.89,2.59 -12.79,-2.91 -2.26,2.1 -11.01,-9.38 -8.91,-4.86 -10.84,-7.45 h -2.75 l 16.99,-36.26 h 10.69 l -5.67,-9.55 v -13.76 l 1.62,-7.61 24.61,-30.75 9.71,-10.04 4.53,-4.53 h 6.96 l 4.21,-6.16 v -8.09 l -5.34,-7.77 1.62,-3.4 4.86,-1.62 -5.18,-5.02 -13.12,-21.69 1.62,-6.31 -2.59,-4.53 z" />
  </symbol>

  <symbol id="Spain" viewBox="0 0 1000 800">
    <path d="m 196.79,266.88 -2.82,-8.86 3.22,-12.8 8.16,-16.11 -8.46,-15.11 -7.26,-13.91 -12.19,-2.21 -3.92,-3.22 -1.21,-10.68 3.83,-7.96 9.67,-8.87 8.76,-3.32 13.3,-0.91 15.11,-1.01 3.12,-5.64 1.61,-13.49 12.7,-8.97 18.13,1.31 25.49,12.19 18.13,2.21 17.93,-2.82 13.7,-5.64 12.09,-4.73 8.36,-0.1 14.91,9.37 16.52,5.13 22.26,2.72 36.47,1.31 13.9,0.9 22.67,4.64 11.68,-5.13 9.98,-7.56 12.59,0.91 21.15,15.31 15.92,-0.51 7.96,2.02 11.18,7.95 11.08,-1 1.41,4.03 -4.84,7.86 2.22,3.42 3.52,1.01 2.73,-3.42 25.79,10.88 3.52,-2.02 12.09,12.8 1.3,-2.42 6.25,0.9 3.03,-2.42 10.27,4.94 0.61,1.21 2.01,3.63 18.24,-0.91 0.9,3.93 7.96,-2.01 12.89,0.5 -0.4,-10.28 h 8.47 l 29.71,9.78 2.12,6.84 0.8,9.27 4.44,2.52 8.86,-2.52 4.94,-0.9 7.95,2.92 0.81,4.83 6.25,0.5 9.37,-5.33 10.06,6.34 11.6,0.51 0.9,-4.44 17.73,-4.43 7.96,2.92 v 2.82 14.91 l 3.72,3.23 -1.5,15.51 -26.4,16.72 -22.57,12.29 -6.34,10.38 -24.78,6.24 -15.72,3.63 -22.87,9.47 -7.65,10.28 -1.21,6.24 6.14,4.03 -2.11,4.94 -14.81,4.42 -14.1,24.39 -21.06,24.47 -2.22,5.95 -4.32,11.18 -5.85,13.8 8.47,25.39 1.7,3.32 1.92,4.03 15.42,8.97 2.51,5.63 -14.81,9.88 -5.04,3.22 -12.28,7.66 -6.76,14.5 -5.33,2.53 -10.98,27.89 3.72,9.68 -6.14,2.92 -23.47,1.51 -13.8,7.26 -10.07,9.77 -6.56,22.56 -15.71,14.71 -6.15,-6.35 -14.2,0.8 -7.25,8.07 h -8.06 l -2.92,-3.43 -77.87,1.32 -16.32,15.5 -24.28,4.94 -8.26,11.28 -0.7,8.36 -2.02,2.53 -1.71,-6.25 -1.61,-0.41 0.1,7.06 -9.17,3.72 -10.07,-4.12 -18.64,-13.8 -5.34,-11.29 0.91,-7.66 -8.26,-3.43 -2.93,-6.23 4.14,-4.84 -11.08,-15.12 -16.63,-8.45 -3.32,-1.11 -11.48,-4.03 -13.9,1.2 0.2,-0.49 7.15,-28.52 5.74,-11.08 21.06,-19.34 -9.68,-9.37 -19.34,-3.73 4.04,-13.69 12.08,-19.95 8.16,-11.28 -3.82,-6.05 -10.78,-16.92 -11.6,-15.11 6.86,-4.03 11.38,-1.41 10.88,-7.05 1.01,-6.15 -1.31,-29.11 3.12,-30.62 -1.71,-14.31 1.2,-13.9 2.02,-2.21 29.32,-16.02 6.85,-6.76 -1.52,-7.65 -19.94,-15.81 -3.63,-7.66 -6.44,-7.25 -7.96,-1.71 -12.59,8.25 -43.22,-1.51 -12.59,-14 -13.1,6.05 z" />
  </symbol>

  <symbol id="Mexico" viewBox="0 0 1000 800">
    <path d="m 612.28,351.31 -3.77,9.54 -5.45,9.54 -2,8.8 -1.88,13.42 v 21.29 l -1.47,13.52 v 12.9 l 5.87,19.6 2.94,9.12 6.5,10.59 8.07,10.17 1.99,5.03 5.03,5.87 5.56,10.8 7.65,13.74 3.99,3.25 7.13,1.05 h 4.5 l 6.08,1.67 6.19,5.04 5.35,5.55 8.07,1.05 10.69,-2.73 16.25,-5.03 14.68,-3.35 8.49,-1.68 v 5.98 l 8.81,2.41 2.73,-3.15 3.14,-2.2 -1.15,-2.73 -4.09,-1.88 11.22,-6.92 6.71,-6.92 1.05,-9.23 5.24,-4.82 -1.05,-5.24 1.05,-12.9 2.72,-7.86 6.5,-3.77 h 1.79 l 7.96,-2.31 7.34,-1.05 11.43,-2.62 10.69,-4.19 6.19,-1.05 5.24,1.05 11.95,1.99 5.24,-2.1 3.99,1.05 6.6,5.66 v 3.36 l -1.05,4.82 -3.04,4.3 -5.76,5.55 -4.51,4.72 -3.35,5.03 v 7.76 l -2.63,3.36 -1.99,3.98 1.57,1.68 3.57,-1.58 -1.05,7.34 -2.72,13.21 -1.16,6.29 -1.05,2.73 -3.56,-5.98 -1.78,-5.03 -1.05,-1.68 -4.09,3.78 v 6.08 h -4.61 l -1.89,4.93 -6.29,9.43 -3.98,-2.93 -2.94,1.05 v 3.56 h -24.43 -18.87 v 13.73 H 746.9 l 4.19,2.42 5.14,5.97 6.6,2.52 3.78,7.55 5.55,2.51 -2.2,7.45 H 751.4 740.29 l -11.32,19.81 3.25,4.3 -2.2,2.62 1.05,5.98 v 4.92 l -7.34,-5.97 -10.07,-9.65 -10.06,-8.39 -11.22,-9.33 -5.56,-3.88 -1.04,-1.04 -6.71,-2.73 -11.01,-2.31 h -6.82 l -8.59,4.41 -11.54,6.18 -7.96,2.83 -9.75,-1.04 -7.66,-2.31 -5.03,-2.1 -13.73,-2.09 -6.19,-2.94 -6.71,-4.61 -9.85,-5.77 -8.29,-2.94 -17.92,-4.29 -10.17,-3.99 -7.55,-3.98 -11.33,-4.82 -6.18,-3.88 -11.85,-11.01 -2.09,-1.05 -6.4,1.05 -7.23,-1.47 -19.29,-6.39 -5.98,-5.98 -5.24,-7.02 -5.24,-4.41 -11.01,-6.39 -6.5,-2.94 -5.24,-5.56 -7.76,-11 -3.88,-6.19 v -1.26 l 1.57,-1.67 5.24,-1.05 1.89,-1.89 v -1.99 l -3.46,-4.2 4.82,-7.65 v -4.3 l -1.88,-5.24 -7.76,-10.8 1.26,-3.35 1.46,-1.99 -1.05,-3.04 -6.91,-7.03 -15.73,-20.23 -5.77,-5.66 -10.06,-12.17 -5.03,-6.08 -8.5,-6.6 -3.46,-2.31 -1.57,-3.04 -1.05,-5.56 -1.57,-2.2 -3.46,-2.3 -6.39,-2.2 -4.2,-3.67 -3.88,-6.09 h -2.83 l -4.4,1.37 -2.52,-1.78 -1.67,-4.3 v -3.78 l 4.82,-8.59 -1.36,-3.99 -7.87,-7.34 -4.61,3.04 -3.98,-7.34 -1.26,-4.19 -3.78,-2.41 -6.39,-1.99 -3.36,-3.57 -1.25,-2.93 1.04,-4.62 1.05,-3.14 -1.89,-2.73 -5.97,-2.41 -4.82,-1.26 -4.83,-2.93 -9.75,-10.28 -5.03,-8.49 -2.93,-6.6 -6.82,-9.96 -7.76,-13 -1.88,-5.14 -3.99,-8.28 -2.62,-4.09 -1.57,-5.56 v -6.18 -3.88 l -5.87,-2.94 -8.39,-2.41 -1.05,-5.55 -1.36,-1.89 -4.82,-2.31 -3.04,4.09 h -2.63 l -14.99,-7.97 -3.04,12.37 v 5.35 1.05 l 2.73,4.19 2.83,3.57 v 12.79 l 1.05,6.18 5.45,8.18 1.47,2.1 6.71,3.25 6.39,6.39 5.45,8.08 6.4,14.57 4.61,3.35 h 3.36 l 2.51,2.1 3.46,16.56 1.05,2.1 2.62,1.78 5.14,1.05 1.47,1.05 2.2,5.14 1.68,7.65 4.71,9.33 5.14,-1.05 2.31,-1.67 2.62,5.34 3.56,17.2 5.66,12.37 6.82,13.84 1.05,6.92 V 388 l 2.72,4.09 3.99,1.78 4.09,-1.99 2.51,-2.2 6.19,9.22 2.62,6.61 4.93,2.94 h 2.93 l 1.36,3.56 -1.99,6.08 -1.47,1.47 -7.23,6.81 -2.73,-1.05 -2.62,-4.61 -2.51,-8.39 -6.5,-6.71 -6.5,-3.46 -5.45,-5.55 -8.81,-5.87 -11.95,-11.33 -4.41,-5.24 -1.67,-3.14 2.3,-11.43 v -3.04 l -5.13,-11.64 -2.52,-4.51 -3.36,-3.25 -4.61,-1.15 -5.34,-3.67 -7.03,-7.97 -3.25,1.68 -3.77,-1.05 -13.32,-8.8 -7.55,-3.67 -9.43,-11.54 -1.47,-1.46 -2.52,-3.04 7.13,1.78 h 6.29 l 6.19,-3.36 2.52,-3.88 1.04,-7.65 v -2.2 l -4.82,-7.55 -4.93,-5.45 -11.53,-10.69 -10.38,-5.88 -4.19,-4.08 -2.2,-6.4 -2.83,-7.86 -1.05,-1.89 -4.72,-1.57 -1.57,-4.3 v -7.23 l -2.1,-4.83 -6.5,-9.01 -4.61,-8.71 v -3.14 l 2.2,-4.72 -8.18,-7.65 -2.62,-3.99 -2.31,-6.08 h 3.57 l 24.85,-1.88 25.05,-1.05 3.25,3.77 2.83,1.99 12.48,4.83 29.56,11.53 36.91,13.73 3.56,1.05 h 17.41 16.25 10.17 19.6 l 2.2,-1.26 1.05,-11 h 19.5 l 19.92,1.04 2.2,1.37 6.61,8.17 8.07,7.76 8.81,6.4 7.44,5.97 1.89,2.73 2.93,8.28 3.36,10.28 4.61,6.71 11.53,7.86 11.64,6.08 3.46,1.05 h 5.35 l 4.29,-1.89 3.05,-4.4 4.29,-5.03 6.08,-6.5 4.93,-2.42 h 6.71 l 5.03,1.05 8.18,3.88 4.4,3.04 3.78,4.51 6.92,12.37 7.86,14.68 8.91,12.37 6.82,6.81 2.83,3.05 1.05,5.45 3.46,11 3.56,7.03 3.98,4.3 9.65,3.67 10.8,6.6 2.72,1.05 4.41,-1.36 h 3.14 l 8.6,4.4 3.56,1.36 z" />
  </symbol>

  <symbol id="Poland" viewBox="0 0 1000 800">
    <path d="m 702.88,660.71 -21.45,-13.19 -11.11,-3.87 -2.59,-8.53 -18.09,-7.5 -3.36,-5.17 -14.73,3.11 -12.92,-2.59 -2.59,5.69 -9.56,6.98 -11.89,-10.08 -12.66,2.58 -4.4,-2.58 -14.21,8.01 -2.85,6.98 -3.87,5.42 -4.66,-4.65 -10.08,3.1 v -8.01 -3.36 l -2.58,-6.98 h -8.53 l -2.58,-6.72 -4.92,-9.56 h -6.72 l -2.58,4.39 h -5.17 l -4.65,9.57 -11.12,2.58 v -9.05 l -7.49,-2.58 -2.59,-13.18 -10.08,-3.88 -4.91,-8.53 v -9.82 l -20.67,-5.43 -8.01,-7.23 -9.57,6.46 h -7.49 v -8.79 -10.34 l -8.53,3.36 4.65,-11.37 h -18.35 l -6.72,-4.91 -13.18,-7.75 h -7.5 v 5.68 l 7.24,12.41 -10.6,4.91 -5.68,7.49 -8.27,-2.84 -7.76,-15.51 -14.21,-10.08 5.94,-8.53 h 5.43 l 2.58,-4.91 -5.17,-7.49 h -6.72 l -2.58,2.58 -12.15,2.85 v -6.98 l -7.23,2.58 -3.36,-7.49 -14.74,-2.59 h -5.42 l -9.31,-6.46 -2.58,-10.86 -5.43,-3.61 h -9.56 l -2.59,3.36 2.59,3.1 v 6.2 h -9.83 l 11.38,-28.95 -7.5,-19.9 -11.89,-8.01 2.84,-10.6 -8.52,-11.37 v -8.01 l 5.68,-5.17 2.84,-12.41 -3.36,-4.13 v -12.93 l -8.01,-6.2 -2.58,-7.75 5.43,-16.54 -17.58,-18.35 -10.08,-4.4 v -13.96 l 10.08,-6.46 5.69,-22.48 -8.27,-36.19 8.78,2.59 5.95,5.43 -2.59,-8.28 3.88,-6.72 v -6.46 l -4.39,-5.68 v -5.69 -3.36 l 24.03,-6.72 11.12,-2.58 13.44,-6.72 33.6,-5.69 12.66,-6.98 20.42,-21.19 28.95,-13.44 39.28,-13.44 35.93,-3.88 27.4,18.61 -22.75,-13.18 v 6.72 l 6.46,7.75 3.62,20.68 9.05,5.94 16.8,2.59 16.8,-4.65 27.39,-18.35 h 2.59 l -25.33,18.6 -4.91,4.92 v 5.42 h 5.68 l 7.5,-5.42 15.77,-9.31 14.21,-11.37 h 21.71 l 58.16,5.17 76.76,-4.4 h 16.54 v 0 l 17.57,10.86 7.24,21.45 2.59,8.27 v 2.59 l 2.58,7.49 4.14,13.18 16.02,65.39 4.39,21.46 v 10.08 l -6.72,9.04 -11.37,2.59 -14.73,10.34 -7.5,13.95 -3.36,12.41 h 7.5 l 10.86,6.2 3.87,7.24 5.69,6.2 v 10.6 l -8.27,31.53 3.36,5.69 4.13,7.23 -2.58,10.08 20.93,34.64 8.27,8.01 -7.75,2.58 -2.58,5.43 8.53,12.41 v 12.92 l -6.72,9.82 h -11.12 l -7.24,7.24 -15.5,16.02 -39.29,49.11 -2.58,12.15 v 21.97 l 9.04,15.25 h -17.06 z m -466,-445.07 v 5.43 h -7.24 l -4.91,2.58 -2.58,-9.3 h 4.65 6.72 z m -23.26,-4.14 h 5.94 l 2.59,9.31 -3.36,-2.59 z" />
  </symbol>
</svg>
